<?xml version="1.0" encoding="UTF-8" standalone="no"?>
<!-- Created with Inkscape (http://www.inkscape.org/) -->

<svg
   xmlns:dc="http://purl.org/dc/elements/1.1/"
   xmlns:cc="http://creativecommons.org/ns#"
   xmlns:rdf="http://www.w3.org/1999/02/22-rdf-syntax-ns#"
   xmlns:svg="http://www.w3.org/2000/svg"
   xmlns="http://www.w3.org/2000/svg"
   xmlns:xlink="http://www.w3.org/1999/xlink"
   xmlns:sodipodi="http://sodipodi.sourceforge.net/DTD/sodipodi-0.dtd"
   xmlns:inkscape="http://www.inkscape.org/namespaces/inkscape"
   width="438.54446"
   height="196.86124"
   id="svg4217"
   version="1.1"
   inkscape:version="0.48.2 r9819"
   sodipodi:docname="Nuevo documento 3">
  <defs
     id="defs4219">
    <linearGradient
       inkscape:collect="always"
       xlink:href="#linearGradient3897"
       id="linearGradient4882"
       gradientUnits="userSpaceOnUse"
       gradientTransform="matrix(0.81510265,0,0,1.0527992,-388.21775,-390.92624)"
       x1="741.86304"
       y1="847.95532"
       x2="729.10541"
       y2="897.84222" />
    <linearGradient
       id="linearGradient3897">
      <stop
         id="stop3899"
         offset="0"
         style="stop-color:#1a1a1a;stop-opacity:1" />
      <stop
         style="stop-color:#333333;stop-opacity:1"
         offset="0.36689883"
         id="stop3901" />
      <stop
         id="stop3903"
         offset="1"
         style="stop-color:#4d4d4d;stop-opacity:1" />
    </linearGradient>
    <linearGradient
       inkscape:collect="always"
       xlink:href="#linearGradient3023"
       id="linearGradient4886"
       gradientUnits="userSpaceOnUse"
       gradientTransform="matrix(0.9147337,0,0,0.84126175,-552.93739,-139.49869)"
       x1="815.47137"
       y1="807.20837"
       x2="845.22882"
       y2="807.20837" />
    <linearGradient
       id="linearGradient3023">
      <stop
         style="stop-color:#808080;stop-opacity:1"
         offset="0"
         id="stop3025" />
      <stop
         id="stop3031"
         offset="0.40000001"
         style="stop-color:#bfbfbf;stop-opacity:1" />
      <stop
         style="stop-color:#404040;stop-opacity:1"
         offset="1"
         id="stop3027" />
    </linearGradient>
    <radialGradient
       inkscape:collect="always"
       xlink:href="#linearGradient3099"
       id="radialGradient4889"
       gradientUnits="userSpaceOnUse"
       gradientTransform="matrix(1.2427963,0,0,6.1856212,-825.50866,-4370.2252)"
       cx="830.94739"
       cy="794.34833"
       fx="830.94739"
       fy="794.34833"
       r="19.548615" />
    <linearGradient
       id="linearGradient3099">
      <stop
         id="stop3101"
         offset="0"
         style="stop-color:#4d4d4d;stop-opacity:1" />
      <stop
         style="stop-color:#333333;stop-opacity:1"
         offset="0.66633576"
         id="stop3103" />
      <stop
         id="stop3105"
         offset="1"
         style="stop-color:#1a1a1a;stop-opacity:1" />
    </linearGradient>
  </defs>
  <sodipodi:namedview
     id="base"
     pagecolor="#ffffff"
     bordercolor="#666666"
     borderopacity="1.0"
     inkscape:pageopacity="0.0"
     inkscape:pageshadow="2"
     inkscape:zoom="0.98994949"
     inkscape:cx="210.96843"
     inkscape:cy="95.627847"
     inkscape:document-units="px"
     inkscape:current-layer="layer1"
     showgrid="false"
     fit-margin-top="25"
     fit-margin-left="25"
     fit-margin-right="25"
     fit-margin-bottom="25"
     inkscape:window-width="615"
     inkscape:window-height="447"
     inkscape:window-x="1"
     inkscape:window-y="58"
     inkscape:window-maximized="0" />
  <metadata
     id="metadata4222">
    <rdf:RDF>
      <cc:Work
         rdf:about="">
        <dc:format>image/svg+xml</dc:format>
        <dc:type
           rdf:resource="http://purl.org/dc/dcmitype/StillImage" />
        <dc:title></dc:title>
      </cc:Work>
    </rdf:RDF>
  </metadata>
  <g
     inkscape:label="Capa 1"
     inkscape:groupmode="layer"
     id="layer1"
     transform="translate(-130.72777,-433.93156)">
    <path
       inkscape:connector-curvature="0"
       style="color:#000000;fill:#cccccc;fill-opacity:1;fill-rule:nonzero;stroke:#808080;stroke-width:6;marker:none;visibility:visible;display:inline;overflow:visible;enable-background:accumulate"
       d="m 227.02214,499.95437 a 3.2125381,3.2125381 0 0 0 -0.625,0.125 c -0.0215,0.006 -0.0412,0.0247 -0.0625,0.0312 a 3.2125381,3.2125381 0 0 0 -1.0625,0.5625 c -0.0113,0.009 -0.02,0.0222 -0.0312,0.0312 a 3.2125381,3.2125381 0 0 0 -0.4375,0.40625 c -0.0285,0.0333 -0.0665,0.0592 -0.0937,0.0937 a 3.2125381,3.2125381 0 0 0 -0.25,0.4375 c -0.029,0.0518 -0.0674,0.10253 -0.0937,0.15625 a 3.2125381,3.2125381 0 0 0 -0.0937,0.21875 c -0.0376,0.0927 -0.0954,0.1837 -0.125,0.28125 -0.52797,1.73783 0.48092,3.56578 2.21875,4.09375 0.29998,0.0911 0.57636,0.11991 0.875,0.125 l 11.875,3.75 a 3.2125381,3.2125381 0 0 0 1.40625,0.15625 l 54.21855,16.4689 c 0.0108,0.009 0.0203,0.0221 0.0312,0.0312 0.32808,0.2736 0.69054,0.46176 1.125,0.59375 0.27915,0.0848 0.56532,0.14619 0.84375,0.15625 l 11.43755,3.4688 c 1.61551,0.51025 3.56604,-0.5272 4.03125,-2.15625 0.45226,-1.59391 -0.59701,-3.44212 -2.1875,-3.90625 l -11.46875,-3.5 c -0.23022,-0.13951 -0.4806,-0.2619 -0.75,-0.34375 -0.43446,-0.13199 -0.85642,-0.16986 -1.28125,-0.125 l -54.65625,-16.59375 a 3.2125381,3.2125381 0 0 0 -0.8125,-0.375 l -12.75,-4.03125 a 3.2125381,3.2125381 0 0 0 -1.28125,-0.15625 z"
       id="path4043" />
    <path
       inkscape:connector-curvature="0"
       style="font-size:medium;font-style:normal;font-variant:normal;font-weight:normal;font-stretch:normal;text-indent:0;text-align:start;text-decoration:none;line-height:normal;letter-spacing:normal;word-spacing:normal;text-transform:none;direction:ltr;block-progression:tb;writing-mode:lr-tb;text-anchor:start;baseline-shift:baseline;color:#000000;fill:#000000;fill-opacity:1;stroke:#808080;stroke-width:6;marker:none;visibility:visible;display:inline;overflow:visible;enable-background:accumulate;font-family:Sans;-inkscape-font-specification:Sans"
       d="m 511.42839,543.79812 c -3.7778,0.009 -7.39272,0.70458 -10.71875,1.96875 0.19678,-0.17151 0.42216,-0.31635 0.65625,-0.4375 a 3.2790301,3.1898866 0 0 0 -0.1875,0.0312 c -4.94131,1.76284 -9.31426,4.7886 -12.6875,8.71875 a 3.2790301,3.1898866 0 0 0 -0.625,1.09375 c -3.85598,4.89615 -6.14157,11.03085 -6.125,17.65625 0.0399,15.9581 13.43971,28.914 29.84375,28.875 3.8869,-0.01 7.59519,-0.7595 11,-2.0937 -0.21832,0.1947 -0.48626,0.3668 -0.75,0.5 4.92972,-1.7643 9.32071,-4.7337 12.6875,-8.6563 a 3.2790301,3.1898866 0 0 0 0.6875,-1.2187 c 3.8139,-4.8813 6.07897,-10.9771 6.0625,-17.5626 -0.0399,-15.95799 -13.43971,-28.91375 -29.84375,-28.87495 z m 0.0312,5.96875 c 13.0936,-0.031 23.6557,10.1999 23.6875,22.9375 0.013,5.1835 -1.71121,9.9665 -4.65625,13.8125 -0.0128,0.017 -0.0496,0.014 -0.0625,0.031 a 3.2790301,3.1898866 0 0 0 -0.9375,0.8126 c -2.59362,3.0217 -5.96458,5.3331 -9.75,6.7187 0.21052,-0.043 0.46425,-0.062 0.6875,-0.062 0.0221,0 0.0405,-4e-4 0.0625,0 -2.75327,1.0971 -5.77064,1.7425 -8.9375,1.75 -13.0936,0.031 -23.6557,-10.2312 -23.6875,-22.9688 -0.0131,-5.2462 1.77095,-10.0678 4.78125,-13.9374 a 3.2790301,3.1898866 0 0 0 0.875,-0.7188 c 2.63115,-3.06553 6.05354,-5.40289 9.90625,-6.78125 -0.1896,0.0346 -0.39415,0.0625 -0.59375,0.0625 -0.0527,0 -0.10419,0.002 -0.15625,0 2.71048,-1.05771 5.67492,-1.6489 8.78125,-1.65625 z"
       id="path3976" />
    <path
       inkscape:connector-curvature="0"
       id="path3983"
       d="m 511.42839,543.79812 c -3.7778,0.009 -7.39272,0.70458 -10.71875,1.96875 0.19678,-0.17151 0.42216,-0.31635 0.65625,-0.4375 a 3.2790301,3.1898866 0 0 0 -0.1875,0.0312 c -4.94131,1.76284 -9.31426,4.7886 -12.6875,8.71875 a 3.2790301,3.1898866 0 0 0 -0.625,1.09375 c -3.85598,4.89615 -6.14157,11.03085 -6.125,17.65625 0.0399,15.9581 13.43971,28.914 29.84375,28.875 3.8869,-0.01 7.59519,-0.7595 11,-2.0937 -0.21832,0.1947 -0.48626,0.3668 -0.75,0.5 4.92972,-1.7643 9.32071,-4.7337 12.6875,-8.6563 a 3.2790301,3.1898866 0 0 0 0.6875,-1.2187 c 3.8139,-4.8813 6.07897,-10.9771 6.0625,-17.5626 -0.0399,-15.95799 -13.43971,-28.91375 -29.84375,-28.87495 z m 0.0312,5.96875 c 13.0936,-0.031 23.6557,10.1999 23.6875,22.9375 0.013,5.1835 -1.71121,9.9665 -4.65625,13.8125 -0.0128,0.017 -0.0496,0.014 -0.0625,0.031 a 3.2790301,3.1898866 0 0 0 -0.9375,0.8126 c -2.59362,3.0217 -5.96458,5.3331 -9.75,6.7187 0.21052,-0.043 0.46425,-0.062 0.6875,-0.062 0.0221,0 0.0405,-4e-4 0.0625,0 -2.75327,1.0971 -5.77064,1.7425 -8.9375,1.75 -13.0936,0.031 -23.6557,-10.2312 -23.6875,-22.9688 -0.0131,-5.2462 1.77095,-10.0678 4.78125,-13.9374 a 3.2790301,3.1898866 0 0 0 0.875,-0.7188 c 2.63115,-3.06553 6.05354,-5.40289 9.90625,-6.78125 -0.1896,0.0346 -0.39415,0.0625 -0.59375,0.0625 -0.0527,0 -0.10419,0.002 -0.15625,0 2.71048,-1.05771 5.67492,-1.6489 8.78125,-1.65625 z"
       style="font-size:medium;font-style:normal;font-variant:normal;font-weight:normal;font-stretch:normal;text-indent:0;text-align:start;text-decoration:none;line-height:normal;letter-spacing:normal;word-spacing:normal;text-transform:none;direction:ltr;block-progression:tb;writing-mode:lr-tb;text-anchor:start;baseline-shift:baseline;color:#000000;fill:#000000;fill-opacity:1;stroke:#ffffff;stroke-width:2;stroke-opacity:1;marker:none;visibility:visible;display:inline;overflow:visible;enable-background:accumulate;font-family:Sans;-inkscape-font-specification:Sans" />
    <path
       inkscape:connector-curvature="0"
       id="path3972"
       d="m 518.26868,557.20141 c 0.18648,0.032 0.36913,0.0615 0.59876,0.0985 0.65131,0.10511 1.46719,0.2418 2.30663,0.43455 1.67887,0.38549 3.39509,1.10401 3.93617,1.83421 0.84129,1.1353 1.35152,3.4724 1.37691,5.5733 0.0127,1.0505 -0.0818,2.0465 -0.24254,2.7892 -0.0862,0.3984 -0.21983,0.7075 -0.31581,0.907 -0.0963,-0.06 -0.2107,-0.1375 -0.33601,-0.2375 -0.52341,-0.4176 -1.20915,-1.1344 -1.86198,-1.862 -0.65283,-0.7276 -1.27663,-1.4629 -1.79123,-1.9933 -0.2573,-0.2653 -0.4494,-0.4729 -0.78067,-0.6695 -0.16564,-0.098 -0.40029,-0.2845 -0.90951,-0.1693 -0.25462,0.058 -0.52769,0.2524 -0.66446,0.4547 -0.13676,0.2024 -0.17437,0.3811 -0.192,0.518 -0.25125,1.9489 -1.29574,4.0726 -2.30916,5.7425 -0.50671,0.835 -0.9994,1.5558 -1.3769,2.1146 -0.18875,0.2795 -0.34717,0.5155 -0.47497,0.7251 -0.0639,0.1048 -0.11994,0.2016 -0.17432,0.3158 -0.0544,0.1143 -0.14148,0.2014 -0.14148,0.571 l 0,0.6392 0.57602,0.2728 c 1.01371,0.4813 1.43249,0.9956 1.43249,1.6245 0,2.7498 0.93498,5.1638 1.35416,7.1877 0.41918,2.024 0.4545,3.4463 -1.05857,4.9594 -3.16569,3.1657 -8.2664,3.1657 -11.43209,0 -1.51307,-1.5131 -1.47775,-2.9354 -1.05857,-4.9594 0.41918,-2.0239 1.35416,-4.4379 1.35416,-7.1877 0,-0.6972 0.42149,-1.2025 1.42744,-1.675 l 0.58107,-0.2728 0,-0.6417 c 0,-0.4106 -0.0969,-0.4727 -0.15158,-0.5811 -0.0547,-0.1085 -0.10854,-0.2007 -0.1718,-0.3007 -0.12651,-0.1999 -0.28449,-0.4274 -0.47244,-0.6998 -0.3759,-0.5447 -0.86833,-1.2571 -1.37438,-2.0818 -1.01208,-1.6493 -2.05572,-3.7555 -2.30663,-5.692 -0.0178,-0.1372 -0.056,-0.3173 -0.19453,-0.5205 -0.13858,-0.2032 -0.41465,-0.3966 -0.6695,-0.4522 -0.50971,-0.1111 -0.73983,0.073 -0.90446,0.1718 -0.32928,0.197 -0.52358,0.4063 -0.78067,0.672 -0.51419,0.5314 -1.13589,1.2672 -1.78871,1.9959 -0.65283,0.7288 -1.33828,1.4483 -1.86198,1.867 -0.12433,0.099 -0.24006,0.1749 -0.33601,0.235 -0.0957,-0.199 -0.23033,-0.5046 -0.31581,-0.8994 -0.1606,-0.7417 -0.25276,-1.7369 -0.24001,-2.7867 0.0255,-2.0994 0.53383,-4.4346 1.37438,-5.5682 0.54089,-0.7295 2.25727,-1.45007 3.93617,-1.83421 0.83945,-0.19208 1.65509,-0.32462 2.30663,-0.4295 0.22986,-0.037 0.412,-0.069 0.59876,-0.10105 0.15568,0.36297 0.3507,0.85311 0.58614,1.49566 0.51941,1.4176 1.18272,3.3594 1.86703,5.3131 0.6843,1.9537 1.38691,3.9172 2.00093,5.4217 0.30701,0.7522 0.58996,1.385 0.85898,1.8771 0.13451,0.2461 0.25885,0.4573 0.42697,0.6594 0.16812,0.2022 0.37136,0.5486 1.04341,0.5356 0.6669,-0.013 0.84856,-0.3508 1.0131,-0.5532 0.16455,-0.2025 0.28805,-0.414 0.42191,-0.662 0.26774,-0.4958 0.54965,-1.1328 0.85646,-1.8897 0.61363,-1.514 1.31669,-3.4902 2.00093,-5.4521 0.68425,-1.9619 1.34759,-3.908 1.86703,-5.3307 0.23555,-0.6452 0.43033,-1.13871 0.58614,-1.50329 z"
       style="font-size:medium;font-style:normal;font-variant:normal;font-weight:normal;font-stretch:normal;text-indent:0;text-align:start;text-decoration:none;line-height:normal;letter-spacing:normal;word-spacing:normal;text-transform:none;direction:ltr;block-progression:tb;writing-mode:lr-tb;text-anchor:start;baseline-shift:baseline;color:#000000;fill:#d40000;fill-opacity:1;fill-rule:nonzero;stroke:#808080;stroke-width:6;marker:none;visibility:visible;display:inline;overflow:visible;enable-background:accumulate;font-family:Sans;-inkscape-font-specification:Sans" />
    <path
       style="font-size:medium;font-style:normal;font-variant:normal;font-weight:normal;font-stretch:normal;text-indent:0;text-align:start;text-decoration:none;line-height:normal;letter-spacing:normal;word-spacing:normal;text-transform:none;direction:ltr;block-progression:tb;writing-mode:lr-tb;text-anchor:start;baseline-shift:baseline;color:#000000;fill:#ffffff;fill-opacity:1;fill-rule:nonzero;stroke:#ffffff;stroke-width:2;marker:none;visibility:visible;display:inline;overflow:visible;enable-background:accumulate;font-family:Sans;-inkscape-font-specification:Sans"
       d="m 518.26868,557.20141 c 0.18648,0.032 0.36913,0.0615 0.59876,0.0985 0.65131,0.10511 1.46719,0.2418 2.30663,0.43455 1.67887,0.38549 3.39509,1.10401 3.93617,1.83421 0.84129,1.1353 1.35152,3.4724 1.37691,5.5733 0.0127,1.0505 -0.0818,2.0465 -0.24254,2.7892 -0.0862,0.3984 -0.21983,0.7075 -0.31581,0.907 -0.0963,-0.06 -0.2107,-0.1375 -0.33601,-0.2375 -0.52341,-0.4176 -1.20915,-1.1344 -1.86198,-1.862 -0.65283,-0.7276 -1.27663,-1.4629 -1.79123,-1.9933 -0.2573,-0.2653 -0.4494,-0.4729 -0.78067,-0.6695 -0.16564,-0.098 -0.40029,-0.2845 -0.90951,-0.1693 -0.25462,0.058 -0.52769,0.2524 -0.66446,0.4547 -0.13676,0.2024 -0.17437,0.3811 -0.192,0.518 -0.25125,1.9489 -1.29574,4.0726 -2.30916,5.7425 -0.50671,0.835 -0.9994,1.5558 -1.3769,2.1146 -0.18875,0.2795 -0.34717,0.5155 -0.47497,0.7251 -0.0639,0.1048 -0.11994,0.2016 -0.17432,0.3158 -0.0544,0.1143 -0.14148,0.2014 -0.14148,0.571 l 0,0.6392 0.57602,0.2728 c 1.01371,0.4813 1.43249,0.9956 1.43249,1.6245 0,2.7498 0.93498,5.1638 1.35416,7.1877 0.41918,2.024 0.4545,3.4463 -1.05857,4.9594 -3.16569,3.1657 -8.2664,3.1657 -11.43209,0 -1.51307,-1.5131 -1.47775,-2.9354 -1.05857,-4.9594 0.41918,-2.0239 1.35416,-4.4379 1.35416,-7.1877 0,-0.6972 0.42149,-1.2025 1.42744,-1.675 l 0.58107,-0.2728 0,-0.6417 c 0,-0.4106 -0.0969,-0.4727 -0.15158,-0.5811 -0.0547,-0.1085 -0.10854,-0.2007 -0.1718,-0.3007 -0.12651,-0.1999 -0.28449,-0.4274 -0.47244,-0.6998 -0.3759,-0.5447 -0.86833,-1.2571 -1.37438,-2.0818 -1.01208,-1.6493 -2.05572,-3.7555 -2.30663,-5.692 -0.0178,-0.1372 -0.056,-0.3173 -0.19453,-0.5205 -0.13858,-0.2032 -0.41465,-0.3966 -0.6695,-0.4522 -0.50971,-0.1111 -0.73983,0.073 -0.90446,0.1718 -0.32928,0.197 -0.52358,0.4063 -0.78067,0.672 -0.51419,0.5314 -1.13589,1.2672 -1.78871,1.9959 -0.65283,0.7288 -1.33828,1.4483 -1.86198,1.867 -0.12433,0.099 -0.24006,0.1749 -0.33601,0.235 -0.0957,-0.199 -0.23033,-0.5046 -0.31581,-0.8994 -0.1606,-0.7417 -0.25276,-1.7369 -0.24001,-2.7867 0.0255,-2.0994 0.53383,-4.4346 1.37438,-5.5682 0.54089,-0.7295 2.25727,-1.45007 3.93617,-1.83421 0.83945,-0.19208 1.65509,-0.32462 2.30663,-0.4295 0.22986,-0.037 0.412,-0.069 0.59876,-0.10105 0.15568,0.36297 0.3507,0.85311 0.58614,1.49566 0.51941,1.4176 1.18272,3.3594 1.86703,5.3131 0.6843,1.9537 1.38691,3.9172 2.00093,5.4217 0.30701,0.7522 0.58996,1.385 0.85898,1.8771 0.13451,0.2461 0.25885,0.4573 0.42697,0.6594 0.16812,0.2022 0.37136,0.5486 1.04341,0.5356 0.6669,-0.013 0.84856,-0.3508 1.0131,-0.5532 0.16455,-0.2025 0.28805,-0.414 0.42191,-0.662 0.26774,-0.4958 0.54965,-1.1328 0.85646,-1.8897 0.61363,-1.514 1.31669,-3.4902 2.00093,-5.4521 0.68425,-1.9619 1.34759,-3.908 1.86703,-5.3307 0.23555,-0.6452 0.43033,-1.13871 0.58614,-1.50329 z"
       id="path3974"
       inkscape:connector-curvature="0" />
    <path
       inkscape:connector-curvature="0"
       style="font-size:medium;font-style:normal;font-variant:normal;font-weight:normal;font-stretch:normal;text-indent:0;text-align:start;text-decoration:none;line-height:normal;letter-spacing:normal;word-spacing:normal;text-transform:none;direction:ltr;block-progression:tb;writing-mode:lr-tb;text-anchor:start;baseline-shift:baseline;color:#000000;fill:#000000;fill-opacity:1;stroke:#808080;stroke-width:6;marker:none;visibility:visible;display:inline;overflow:visible;enable-background:accumulate;font-family:Sans;-inkscape-font-specification:Sans"
       d="m 441.27214,543.79812 c -12.13271,0.0616 -23.5216,7.40071 -27.875,19.12495 -1.04482,2.8139 -1.62057,5.6873 -1.75,8.5313 -0.56088,12.3242 7.09096,24.1269 19.625,28.5313 6.09735,2.1426 12.73862,2.2921 18.90625,0.4374 a 3.3693481,3.2777492 0 0 0 1.5625,-0.1874 c 4.83585,-1.7252 9.15139,-4.6356 12.5,-8.4376 0.0343,-0.039 0.0597,-0.086 0.0937,-0.125 0.0499,-0.053 0.10985,-0.1 0.15625,-0.1562 a 3.3712895,3.2796378 0 0 0 0.25,-0.3438 c 0.0124,-0.02 0.0192,-0.042 0.0312,-0.062 a 3.3712895,3.2796378 0 0 0 0.25,-0.5313 c 0.008,-0.022 0.0235,-0.041 0.0312,-0.062 a 3.3712895,3.2796378 0 0 0 0.125,-0.4375 3.3712895,3.2796378 0 0 0 -0.125,-1.8125 3.3712895,3.2796378 0 0 0 -0.0937,-0.2188 c -0.01,-0.021 -0.0212,-0.041 -0.0312,-0.062 a 3.3712895,3.2796378 0 0 0 -0.3125,-0.5 c -0.0132,-0.019 -0.0177,-0.044 -0.0312,-0.063 a 3.3712895,3.2796378 0 0 0 -0.0937,-0.125 c -0.0371,-0.045 -0.0856,-0.082 -0.125,-0.125 -0.14977,-0.1643 -0.32046,-0.3056 -0.5,-0.4374 -0.0917,-0.067 -0.18273,-0.1296 -0.28125,-0.1876 -0.49699,-0.2921 -1.06932,-0.5 -1.6875,-0.5 -0.56803,0 -1.09385,0.1879 -1.5625,0.4376 -0.10344,0.055 -0.21588,0.091 -0.3125,0.1562 a 3.3712895,3.2796378 0 0 0 -0.71875,0.6562 c -2.62515,3.0585 -6.02954,5.4094 -9.875,6.7813 a 3.3693481,3.2777492 0 0 0 -1.125,0.6563 c -4.88066,1.4529 -10.11509,1.3508 -14.9375,-0.3438 -12.31296,-4.3267 -18.66643,-17.4593 -14.21875,-29.4375 4.29724,-11.57305 17.06811,-17.71879 29.03125,-14.21875 a 3.3693481,3.2777492 0 0 0 1.15625,0.6875 c 3.73907,1.31391 7.04938,3.52278 9.65625,6.4375 0.5984,0.91045 1.64156,1.50005 2.8125,1.50005 1.05235,0 1.97997,-0.4908 2.59375,-1.25005 a 3.3712895,3.2796378 0 0 0 0.2812,-0.40715 c 0.0263,-0.0447 0.0695,-0.079 0.0937,-0.125 a 3.3712895,3.2796378 0 0 0 -0.3125,-3.59375 c -0.0227,-0.0297 -0.0388,-0.0649 -0.0625,-0.0937 -3.40265,-3.92546 -7.81688,-6.91178 -12.78125,-8.65625 a 3.3693481,3.2777492 0 0 0 -1.5625,-0.1875 c -2.90976,-0.86247 -5.8694,-1.26477 -8.78125,-1.25 z"
       id="path3877" />
    <path
       inkscape:connector-curvature="0"
       id="path3912"
       d="m 441.27214,543.79812 c -12.13271,0.0616 -23.5216,7.40071 -27.875,19.12495 -1.04482,2.8139 -1.62057,5.6873 -1.75,8.5313 -0.56088,12.3242 7.09096,24.1269 19.625,28.5313 6.09735,2.1426 12.73862,2.2921 18.90625,0.4374 a 3.3693481,3.2777492 0 0 0 1.5625,-0.1874 c 4.83585,-1.7252 9.15139,-4.6356 12.5,-8.4376 0.0343,-0.039 0.0597,-0.086 0.0937,-0.125 0.0499,-0.053 0.10985,-0.1 0.15625,-0.1562 a 3.3712895,3.2796378 0 0 0 0.25,-0.3438 c 0.0124,-0.02 0.0192,-0.042 0.0312,-0.062 a 3.3712895,3.2796378 0 0 0 0.25,-0.5313 c 0.008,-0.022 0.0235,-0.041 0.0312,-0.062 a 3.3712895,3.2796378 0 0 0 0.125,-0.4375 3.3712895,3.2796378 0 0 0 -0.125,-1.8125 3.3712895,3.2796378 0 0 0 -0.0937,-0.2188 c -0.01,-0.021 -0.0212,-0.041 -0.0312,-0.062 a 3.3712895,3.2796378 0 0 0 -0.3125,-0.5 c -0.0132,-0.019 -0.0177,-0.044 -0.0312,-0.063 a 3.3712895,3.2796378 0 0 0 -0.0937,-0.125 c -0.0371,-0.045 -0.0856,-0.082 -0.125,-0.125 -0.14977,-0.1643 -0.32046,-0.3056 -0.5,-0.4374 -0.0917,-0.067 -0.18273,-0.1296 -0.28125,-0.1876 -0.49699,-0.2921 -1.06932,-0.5 -1.6875,-0.5 -0.56803,0 -1.09385,0.1879 -1.5625,0.4376 -0.10344,0.055 -0.21588,0.091 -0.3125,0.1562 a 3.3712895,3.2796378 0 0 0 -0.71875,0.6562 c -2.62515,3.0585 -6.02954,5.4094 -9.875,6.7813 a 3.3693481,3.2777492 0 0 0 -1.125,0.6563 c -4.88066,1.4529 -10.11509,1.3508 -14.9375,-0.3438 -12.31296,-4.3267 -18.66643,-17.4593 -14.21875,-29.4375 4.29724,-11.57305 17.06811,-17.71879 29.03125,-14.21875 a 3.3693481,3.2777492 0 0 0 1.15625,0.6875 c 3.73907,1.31391 7.04938,3.52278 9.65625,6.4375 0.5984,0.91045 1.64156,1.50005 2.8125,1.50005 1.05235,0 1.97997,-0.4908 2.59375,-1.25005 a 3.3712895,3.2796378 0 0 0 0.2812,-0.40715 c 0.0263,-0.0447 0.0695,-0.079 0.0937,-0.125 a 3.3712895,3.2796378 0 0 0 -0.3125,-3.59375 c -0.0227,-0.0297 -0.0388,-0.0649 -0.0625,-0.0937 -3.40265,-3.92546 -7.81688,-6.91178 -12.78125,-8.65625 a 3.3693481,3.2777492 0 0 0 -1.5625,-0.1875 c -2.90976,-0.86247 -5.8694,-1.26477 -8.78125,-1.25 z"
       style="font-size:medium;font-style:normal;font-variant:normal;font-weight:normal;font-stretch:normal;text-indent:0;text-align:start;text-decoration:none;line-height:normal;letter-spacing:normal;word-spacing:normal;text-transform:none;direction:ltr;block-progression:tb;writing-mode:lr-tb;text-anchor:start;baseline-shift:baseline;color:#000000;fill:#ffffff;fill-opacity:1;stroke:#ffffff;stroke-width:2;marker:none;visibility:visible;display:inline;overflow:visible;enable-background:accumulate;font-family:Sans;-inkscape-font-specification:Sans" />
    <path
       inkscape:connector-curvature="0"
       id="path4688"
       d="m 337.80339,543.76687 c -1.96007,0 -3.5625,1.57118 -3.5625,3.53125 0,0.58595 0.15478,1.13792 0.40625,1.625 l -0.125,12.78125 a 3.2125376,3.2125376 0 0 0 0.25,1.5625 l 0,7.7812 c -0.0421,16.9509 14.0299,30.678 31.25,30.7188 17.22009,0.041 31.36413,-13.6145 31.40625,-30.625 l 0,-0.031 0,-11.125 c 0.17448,0.2895 0.31904,0.6023 0.40625,0.9374 l 0,-13.62495 a 3.4311487,3.4311487 0 0 0 -3.34375,-3.46875 3.4311487,3.4311487 0 0 0 -3.5,3.46875 l 0,13.59375 c 0.0888,-0.3328 0.23086,-0.6501 0.40625,-0.9375 l 0,11.1563 c -0.0339,13.6847 -11.30002,24.6269 -25.34375,24.5937 -14.04374,-0.033 -25.25257,-11.0143 -25.21875,-24.625 l 0,-0.031 0,-8.25 a 3.2125376,3.2125376 0 0 0 0.0937,-1.0312 l 0.15625,-13.09375 c 0.17959,-0.4246 0.28125,-0.88498 0.28125,-1.375 0,-1.96007 -1.60243,-3.53125 -3.5625,-3.53125 z"
       style="font-size:medium;font-style:normal;font-variant:normal;font-weight:normal;font-stretch:normal;text-indent:0;text-align:start;text-decoration:none;line-height:normal;letter-spacing:normal;word-spacing:normal;text-transform:none;direction:ltr;block-progression:tb;writing-mode:lr-tb;text-anchor:start;baseline-shift:baseline;color:#000000;fill:#000000;fill-opacity:1;stroke:#808080;stroke-width:6;marker:none;visibility:visible;display:inline;overflow:visible;enable-background:accumulate;font-family:Sans;-inkscape-font-specification:Sans" />
    <path
       inkscape:connector-curvature="0"
       style="font-size:medium;font-style:normal;font-variant:normal;font-weight:normal;font-stretch:normal;text-indent:0;text-align:start;text-decoration:none;line-height:normal;letter-spacing:normal;word-spacing:normal;text-transform:none;direction:ltr;block-progression:tb;writing-mode:lr-tb;text-anchor:start;baseline-shift:baseline;color:#000000;fill:#000000;fill-opacity:1;stroke:#ffffff;stroke-width:2;marker:none;visibility:visible;display:inline;overflow:visible;enable-background:accumulate;font-family:Sans;-inkscape-font-specification:Sans"
       d="m 337.80339,543.76687 c -1.96007,0 -3.5625,1.57118 -3.5625,3.53125 0,0.58595 0.15478,1.13792 0.40625,1.625 l -0.125,12.78125 a 3.2125376,3.2125376 0 0 0 0.25,1.5625 l 0,7.7812 c -0.0421,16.9509 14.0299,30.678 31.25,30.7188 17.22009,0.041 31.36413,-13.6145 31.40625,-30.625 l 0,-0.031 0,-11.125 c 0.17448,0.2895 0.31904,0.6023 0.40625,0.9374 l 0,-13.62495 a 3.4311487,3.4311487 0 0 0 -3.34375,-3.46875 3.4311487,3.4311487 0 0 0 -3.5,3.46875 l 0,13.59375 c 0.0888,-0.3328 0.23086,-0.6501 0.40625,-0.9375 l 0,11.1563 c -0.0339,13.6847 -11.30002,24.6269 -25.34375,24.5937 -14.04374,-0.033 -25.25257,-11.0143 -25.21875,-24.625 l 0,-0.031 0,-8.25 a 3.2125376,3.2125376 0 0 0 0.0937,-1.0312 l 0.15625,-13.09375 c 0.17959,-0.4246 0.28125,-0.88498 0.28125,-1.375 0,-1.96007 -1.60243,-3.53125 -3.5625,-3.53125 z"
       id="path4666" />
    <path
       inkscape:connector-curvature="0"
       id="path4662"
       d="m 261.45964,543.76687 c -1.81626,0 -3.28125,1.46499 -3.28125,3.28125 0,0.33014 0.0657,0.63687 0.15625,0.9375 l -0.15625,12.40625 a 3.2189017,3.2189017 0 0 0 0.28125,1.3125 l 0,22.6875 c -0.1839,0.4103 -0.28125,0.8651 -0.28125,1.3438 0,0.3061 0.0467,0.5937 0.125,0.875 l 0,11.9374 a 3.1794134,3.1794134 0 0 0 3.21875,3.2188 3.1794134,3.1794134 0 0 0 3.125,-3.2188 l 0,-11.9687 c 0.0728,-0.2718 0.125,-0.549 0.125,-0.8437 0,-0.4541 -0.11484,-0.8879 -0.28125,-1.2813 l 0,-23.125 a 3.2189017,3.2189017 0 0 0 0.125,-0.875 l 0.15625,-13.375 a 3.2125381,3.2125381 0 0 0 -2.03125,-3.0625 c -0.18731,-0.0792 -0.35936,-0.1439 -0.5625,-0.1875 a 3.2125381,3.2125381 0 0 0 -0.0312,0 c -0.21408,-0.0438 -0.46047,-0.0625 -0.6875,-0.0625 z m 20.03125,0.28125 c -0.22703,0 -0.44217,0.0187 -0.65625,0.0625 l -12.25,0 a 3.1794134,3.1794134 0 0 0 -3.21875,3.21875 3.1794134,3.1794134 0 0 0 3.21875,3.125 l 11.90625,0 c 0.31829,0.10263 0.64757,0.1875 1,0.1875 0.45407,0 0.8878,-0.11484 1.28125,-0.28125 l 9.4375,0 c 0,0 2.9412,0.0418 5.8125,1.53125 2.8713,1.48948 5.5625,3.90268 5.5625,10.4062 0,6.5037 -2.6912,8.8856 -5.5625,10.375 -2.8713,1.4896 -5.8125,1.5313 -5.8125,1.5313 l -22.65625,0 a 3.021121,3.021121 0 0 0 -1.5,5.6563 l 24.25,13.6874 a 3.2125381,3.2125381 0 0 0 1.03125,0.9063 l 11.65625,6.5625 c 0.0126,0.01 0.0185,0.024 0.0312,0.031 a 3.2125381,3.2125381 0 0 0 4.46875,-1.3124 c 0.0355,-0.065 0.063,-0.1217 0.0937,-0.1876 a 3.2125381,3.2125381 0 0 0 0.15625,-0.4062 c 0.0214,-0.069 0.0146,-0.1492 0.0312,-0.2188 a 3.2125381,3.2125381 0 0 0 0.0625,-0.3124 c 0.18612,-1.3141 -0.42448,-2.6661 -1.65625,-3.3438 -0.27924,-0.1536 -0.54763,-0.2461 -0.84375,-0.3125 l -10.84375,-6.0937 a 3.2125381,3.2125381 0 0 0 -0.84375,-0.3438 l -14.625,-8.25 11.1875,0 c 0,0 4.26102,0.029 8.59375,-2.2188 4.33273,-2.2476 8.84375,-7.3052 8.84375,-15.75 0,-8.44461 -4.51102,-13.5336 -8.84375,-15.7812 -4.33273,-2.2476 -8.59375,-2.1875 -8.59375,-2.1875 l -9.375,0 c -0.41026,-0.1839 -0.86505,-0.28125 -1.34375,-0.28125 z"
       style="color:#000000;fill:none;stroke:#808080;stroke-width:6;marker:none;visibility:visible;display:inline;overflow:visible;enable-background:accumulate" />
    <path
       inkscape:connector-curvature="0"
       style="color:#000000;fill:none;stroke:#ffffff;stroke-width:2;marker:none;visibility:visible;display:inline;overflow:visible;enable-background:accumulate"
       d="m 261.45964,543.76687 c -1.81626,0 -3.28125,1.46499 -3.28125,3.28125 0,0.33014 0.0657,0.63687 0.15625,0.9375 l -0.15625,12.40625 a 3.2189017,3.2189017 0 0 0 0.28125,1.3125 l 0,22.6875 c -0.1839,0.4103 -0.28125,0.8651 -0.28125,1.3438 0,0.3061 0.0467,0.5937 0.125,0.875 l 0,11.9374 a 3.1794134,3.1794134 0 0 0 3.21875,3.2188 3.1794134,3.1794134 0 0 0 3.125,-3.2188 l 0,-11.9687 c 0.0728,-0.2718 0.125,-0.549 0.125,-0.8437 0,-0.4541 -0.11484,-0.8879 -0.28125,-1.2813 l 0,-23.125 a 3.2189017,3.2189017 0 0 0 0.125,-0.875 l 0.15625,-13.375 a 3.2125381,3.2125381 0 0 0 -2.03125,-3.0625 c -0.18731,-0.0792 -0.35936,-0.1439 -0.5625,-0.1875 a 3.2125381,3.2125381 0 0 0 -0.0312,0 c -0.21408,-0.0438 -0.46047,-0.0625 -0.6875,-0.0625 z m 20.03125,0.28125 c -0.22703,0 -0.44217,0.0187 -0.65625,0.0625 l -12.25,0 a 3.1794134,3.1794134 0 0 0 -3.21875,3.21875 3.1794134,3.1794134 0 0 0 3.21875,3.125 l 11.90625,0 c 0.31829,0.10263 0.64757,0.1875 1,0.1875 0.45407,0 0.8878,-0.11484 1.28125,-0.28125 l 9.4375,0 c 0,0 2.9412,0.0418 5.8125,1.53125 2.8713,1.48948 5.5625,3.90268 5.5625,10.4062 0,6.5037 -2.6912,8.8856 -5.5625,10.375 -2.8713,1.4896 -5.8125,1.5313 -5.8125,1.5313 l -22.65625,0 a 3.021121,3.021121 0 0 0 -1.5,5.6563 l 24.25,13.6874 a 3.2125381,3.2125381 0 0 0 1.03125,0.9063 l 11.65625,6.5625 c 0.0126,0.01 0.0185,0.024 0.0312,0.031 a 3.2125381,3.2125381 0 0 0 4.46875,-1.3124 c 0.0355,-0.065 0.063,-0.1217 0.0937,-0.1876 a 3.2125381,3.2125381 0 0 0 0.15625,-0.4062 c 0.0214,-0.069 0.0146,-0.1492 0.0312,-0.2188 a 3.2125381,3.2125381 0 0 0 0.0625,-0.3124 c 0.18612,-1.3141 -0.42448,-2.6661 -1.65625,-3.3438 -0.27924,-0.1536 -0.54763,-0.2461 -0.84375,-0.3125 l -10.84375,-6.0937 a 3.2125381,3.2125381 0 0 0 -0.84375,-0.3438 l -14.625,-8.25 11.1875,0 c 0,0 4.26102,0.029 8.59375,-2.2188 4.33273,-2.2476 8.84375,-7.3052 8.84375,-15.75 0,-8.44461 -4.51102,-13.5336 -8.84375,-15.7812 -4.33273,-2.2476 -8.59375,-2.1875 -8.59375,-2.1875 l -9.375,0 c -0.41026,-0.1839 -0.86505,-0.28125 -1.34375,-0.28125 z"
       id="path4601" />
    <path
       inkscape:connector-curvature="0"
       style="font-size:medium;font-style:normal;font-variant:normal;font-weight:normal;font-stretch:normal;text-indent:0;text-align:start;text-decoration:none;line-height:normal;letter-spacing:normal;word-spacing:normal;text-transform:none;direction:ltr;block-progression:tb;writing-mode:lr-tb;text-anchor:start;baseline-shift:baseline;color:#000000;fill:#000000;fill-opacity:1;stroke:#808080;stroke-width:3.5;stroke-miterlimit:4;stroke-dasharray:none;marker:none;visibility:visible;display:inline;overflow:visible;enable-background:accumulate;font-family:Sans;-inkscape-font-specification:Sans"
       d="m 208.28892,512.84538 c -16.90222,-0.10439 -29.37209,2.92935 -37.7497,7.32511 -8.37761,4.39575 -12.70831,10.17727 -13.0499,15.58335 -0.10498,1.66152 0.51049,3.08118 1.64999,4.08247 1.1395,1.00128 2.73133,1.61591 4.62496,2.00624 3.78726,0.78065 8.85482,0.66144 14.29989,0.18663 4.17556,-0.36412 8.50552,-0.93137 12.6749,-1.49302 -0.0571,7.84596 -0.21693,15.95659 -0.425,23.39841 -0.19691,7.043 -0.45405,13.4696 -0.69999,18.4294 -0.24594,4.9598 -0.51141,8.5258 -0.7,9.6113 -0.49111,2.8268 1.37181,5.9023 4.67497,8.2348 3.30316,2.3329 8.1482,3.9515 13.92489,3.8259 5.76574,-0.1251 10.39626,-1.841 13.49989,-4.1291 3.10363,-2.2881 4.76078,-5.1738 4.17497,-7.7217 -0.44129,-1.919 -0.86068,-6.8041 -1.17499,-13.0172 -0.31432,-6.2132 -0.55395,-13.8079 -0.7,-21.36881 -0.12159,-6.29494 -0.1753,-12.3846 -0.175,-17.82288 4.58773,0.35871 9.35442,0.69165 13.79989,0.79316 5.16857,0.11803 9.88962,-0.0479 13.4499,-0.88648 1.78013,-0.41931 3.28195,-1.01119 4.39996,-1.86627 1.11801,-0.85507 1.8175,-2.02452 1.87499,-3.40594 0.1929,-4.63522 -3.54839,-10.02869 -11.44991,-14.27697 -7.90152,-4.24828 -20.0238,-7.38402 -36.92471,-7.4884 z"
       id="path4859" />
    <path
       sodipodi:nodetypes="ssssss"
       inkscape:connector-curvature="0"
       id="path3817"
       d="m 191.40825,520.88571 c 0.61444,24.79989 -0.84605,66.34206 -1.6921,71.21196 -0.84606,4.8698 6.55693,11.4443 17.7672,11.2008 11.21027,-0.2436 17.90139,-6.6942 16.92115,-10.9573 -1.90364,-8.2789 -2.54994,-61.04814 -1.69213,-68.29004 1.26909,-10.71378 -31.5095,-11.45521 -31.30412,-3.16542 z"
       style="fill:url(#radialGradient4889);fill-opacity:1;stroke:none" />
    <path
       inkscape:connector-curvature="0"
       style="color:#000000;fill:url(#linearGradient4886);fill-opacity:1;fill-rule:nonzero;stroke:none;stroke-width:1;marker:none;visibility:visible;display:inline;overflow:visible;enable-background:accumulate"
       d="m 222.35658,533.79989 -30.81509,0.85623 c -0.002,6.08712 -0.0512,12.42904 -0.17151,18.70502 4.01345,5.39733 24.72782,5.97063 31.10094,0.0658 -0.10305,-6.89124 -0.13271,-13.35993 -0.0857,-18.63915 -0.006,-0.20337 -0.0245,-0.83781 -0.0286,-0.98795 z"
       id="path3819" />
    <path
       style="fill:none;stroke:#ffffff;stroke-width:1;stroke-linecap:butt;stroke-linejoin:miter;stroke-opacity:1"
       d="m 191.40825,520.88571 c 0.61444,24.79989 -0.84605,66.34206 -1.6921,71.21196 -0.84606,4.8698 6.55693,11.4443 17.7672,11.2008 11.21027,-0.2436 17.90139,-6.6942 16.92115,-10.9573 -1.90364,-8.2789 -2.54994,-61.04814 -1.69213,-68.29004 1.26909,-10.71378 -31.5095,-11.45521 -31.30412,-3.16542 z"
       id="path3859"
       inkscape:connector-curvature="0"
       sodipodi:nodetypes="ssssss" />
    <path
       sodipodi:nodetypes="zssszsssssss"
       inkscape:connector-curvature="0"
       id="path3823"
       d="m 208.27738,513.59283 c -33.59372,-0.20747 -49.35112,12.08103 -49.99112,22.2099 -0.74835,11.84398 37.00195,1.97776 48.82819,2.31649 14.94686,0.42808 48.36286,5.84802 48.75368,-3.54356 0.35191,-8.45612 -13.997,-20.77535 -47.59075,-20.98283 z m -0.76424,4.30991 c 0.72361,0 5.98652,0.28573 8.7627,1.31599 5.27609,1.95803 8.07117,5.58697 3.75978,7.7315 -6.46751,3.21698 -8.31862,2.27056 -12.7044,2.27056 -4.38581,0 -6.41884,0.94642 -12.88635,-2.27056 -4.3114,-2.14453 -1.51631,-5.77347 3.75979,-7.7315 2.77616,-1.03026 8.58486,-1.31599 9.30848,-1.31599 z"
       style="color:#000000;fill:url(#linearGradient4882);fill-opacity:1;fill-rule:nonzero;stroke:none;stroke-width:1px;marker:none;visibility:visible;display:inline;overflow:visible;enable-background:accumulate" />
    <path
       style="color:#000000;fill:none;stroke:none;stroke-width:1px;marker:none;visibility:visible;display:inline;overflow:visible;enable-background:accumulate"
       d="m 208.27738,511.48724 c -33.59372,-0.20747 -49.35112,12.08101 -49.99112,22.20988 -0.74835,11.84399 37.00195,1.97778 48.82819,2.31649 14.94686,0.42809 48.36286,5.84803 48.75368,-3.54355 0.35191,-8.45612 -13.997,-20.77535 -47.59075,-20.98282 z m -0.76424,4.3099 c 0.72361,0 5.98652,0.28573 8.7627,1.316 5.27609,1.95803 8.07117,5.58696 3.75978,7.73149 -6.46751,3.21698 -8.31862,2.27055 -12.7044,2.27055 -4.38581,0 -6.41884,0.94643 -12.88635,-2.27055 -4.3114,-2.14453 -1.51631,-5.77346 3.75979,-7.73149 2.77616,-1.03027 8.58486,-1.316 9.30848,-1.316 z"
       id="path3907"
       inkscape:connector-curvature="0"
       sodipodi:nodetypes="zssszsssssss" />
    <path
       style="color:#000000;fill:none;stroke:#ffffff;stroke-width:1;marker:none;visibility:visible;display:inline;overflow:visible;enable-background:accumulate"
       d="m 208.27738,513.59283 c -33.59372,-0.20747 -49.35112,12.08103 -49.99112,22.2099 -0.74835,11.84398 37.00195,1.97776 48.82819,2.31649 14.94686,0.42808 48.36286,5.84802 48.75368,-3.54356 0.35191,-8.45612 -13.997,-20.77535 -47.59075,-20.98283 z"
       id="path3909"
       inkscape:connector-curvature="0"
       sodipodi:nodetypes="zsssz" />
    <path
       style="color:#000000;fill:none;stroke:#333333;stroke-width:2.00000024;stroke-opacity:1;marker:none;visibility:visible;display:inline;overflow:visible;enable-background:accumulate"
       d="m 207.51313,517.90274 c 0.72361,0 5.98652,0.28573 8.7627,1.31599 5.27609,1.95803 8.07117,5.58697 3.75978,7.7315 -6.46751,3.21698 -8.31862,2.27056 -12.7044,2.27056 -4.38581,0 -6.41883,0.94642 -12.88634,-2.27056 -4.3114,-2.14453 -1.51632,-5.77347 3.75979,-7.7315 2.77616,-1.03026 10.03211,-1.31599 9.30848,-1.31599 z"
       id="path3911"
       inkscape:connector-curvature="0"
       sodipodi:nodetypes="cssssssc" />
    <g
       id="g4120"
       transform="matrix(0.60874029,0,0,0.60874029,-85.77579,-36.594238)">
      <path
         sodipodi:open="true"
         sodipodi:end="6.6322512"
         sodipodi:start="2.7925268"
         inkscape:transform-center-x="117.50858"
         inkscape:transform-center-y="0.11176234"
         sodipodi:type="arc"
         style="color:#000000;fill:none;stroke:#000000;stroke-width:37.36027908;stroke-linecap:round;stroke-miterlimit:4;stroke-dasharray:none;marker:none;visibility:visible;display:inline;overflow:visible;enable-background:accumulate"
         id="path3927"
         sodipodi:cx="300"
         sodipodi:cy="540.93359"
         sodipodi:rx="162.85715"
         sodipodi:ry="162.85715"
         d="m 146.96434,596.63402 c -30.76249,-84.51926 12.81597,-177.97359 97.33523,-208.73609 84.51927,-30.76249 177.97359,12.81598 208.73609,97.33524 13.09532,35.97909 13.09532,75.42177 0,111.40086"
         transform="matrix(6.5480007e-4,0.26201501,0.26933719,-6.369969e-4,720.11284,922.74461)" />
      <path
         transform="matrix(6.5480007e-4,0.26201501,0.26933719,-6.369969e-4,720.11284,922.74461)"
         d="M 195.31745,665.68941 C 173.41823,647.31378 156.74181,623.49739 146.96434,596.63402"
         sodipodi:ry="162.85715"
         sodipodi:rx="162.85715"
         sodipodi:cy="540.93359"
         sodipodi:cx="300"
         id="path3929"
         style="color:#000000;fill:none;stroke:#cccccc;stroke-width:41.09630585;stroke-linecap:round;stroke-miterlimit:4;stroke-dasharray:none;marker:none;visibility:visible;display:inline;overflow:visible;enable-background:accumulate"
         sodipodi:type="arc"
         inkscape:transform-center-y="0.11176234"
         inkscape:transform-center-x="117.50858"
         sodipodi:start="2.268928"
         sodipodi:end="2.7925268"
         sodipodi:open="true" />
      <path
         sodipodi:type="arc"
         style="color:#000000;fill:#e6e6e6;fill-opacity:1;fill-rule:nonzero;stroke:none;stroke-width:40.35972595;marker:none;visibility:visible;display:inline;overflow:visible;enable-background:accumulate"
         id="path3931"
         sodipodi:cx="-86.953651"
         sodipodi:cy="162.7594"
         sodipodi:rx="40.132458"
         sodipodi:ry="35.673294"
         d="m -46.821194,162.7594 c 0,19.70182 -17.967913,35.67329 -40.132457,35.67329 -22.164549,0 -40.132459,-15.97147 -40.132459,-35.67329 0,-19.70182 17.96791,-35.67329 40.132459,-35.67329 22.164544,0 40.132457,15.97147 40.132457,35.67329 z"
         transform="matrix(0.13704618,0,0,0.15417694,911.45231,948.40292)" />
      <path
         sodipodi:end="0.87266459"
         sodipodi:start="0.34906585"
         inkscape:transform-center-x="117.50858"
         inkscape:transform-center-y="0.11176234"
         sodipodi:type="arc"
         style="color:#000000;fill:none;stroke:#cccccc;stroke-width:41.09630585;stroke-linecap:round;stroke-miterlimit:4;stroke-dasharray:none;marker:none;visibility:visible;display:inline;overflow:visible;enable-background:accumulate"
         id="path3933"
         sodipodi:cx="300"
         sodipodi:cy="540.93359"
         sodipodi:rx="162.85715"
         sodipodi:ry="162.85715"
         d="m 453.03566,596.63402 c -9.77747,26.86337 -26.45388,50.67976 -48.3531,69.05538"
         transform="matrix(6.5480007e-4,0.26201501,0.26933719,-6.369969e-4,720.11284,922.74461)"
         sodipodi:open="true" />
      <path
         transform="matrix(0.13704618,0,0,0.15417694,911.58941,1003.2597)"
         d="m -46.821194,162.7594 c 0,19.70182 -17.967913,35.67329 -40.132457,35.67329 -22.164549,0 -40.132459,-15.97147 -40.132459,-35.67329 0,-19.70182 17.96791,-35.67329 40.132459,-35.67329 22.164544,0 40.132457,15.97147 40.132457,35.67329 z"
         sodipodi:ry="35.673294"
         sodipodi:rx="40.132458"
         sodipodi:cy="162.7594"
         sodipodi:cx="-86.953651"
         id="path3935"
         style="color:#000000;fill:#e6e6e6;fill-opacity:1;fill-rule:nonzero;stroke:none;stroke-width:40.35972595;marker:none;visibility:visible;display:inline;overflow:visible;enable-background:accumulate"
         sodipodi:type="arc" />
    </g>
    <path
       inkscape:connector-curvature="0"
       id="path3917"
       d="m 518.26868,557.20141 c 0.18648,0.032 0.36913,0.0615 0.59876,0.0985 0.65131,0.10511 1.46719,0.2418 2.30663,0.43455 1.67887,0.38549 3.39509,1.10401 3.93617,1.83421 0.84129,1.1353 1.35152,3.4724 1.37691,5.5733 0.0127,1.0505 -0.0818,2.0465 -0.24254,2.7892 -0.0862,0.3984 -0.21983,0.7075 -0.31581,0.907 -0.0963,-0.06 -0.2107,-0.1375 -0.33601,-0.2375 -0.52341,-0.4176 -1.20915,-1.1344 -1.86198,-1.862 -0.65283,-0.7276 -1.27663,-1.4629 -1.79123,-1.9933 -0.2573,-0.2653 -0.4494,-0.4729 -0.78067,-0.6695 -0.16564,-0.098 -0.40029,-0.2845 -0.90951,-0.1693 -0.25462,0.058 -0.52769,0.2524 -0.66446,0.4547 -0.13676,0.2024 -0.17437,0.3811 -0.192,0.518 -0.25125,1.9489 -1.29574,4.0726 -2.30916,5.7425 -0.50671,0.835 -0.9994,1.5558 -1.3769,2.1146 -0.18875,0.2795 -0.34717,0.5155 -0.47497,0.7251 -0.0639,0.1048 -0.11994,0.2016 -0.17432,0.3158 -0.0544,0.1143 -0.14148,0.2014 -0.14148,0.571 l 0,0.6392 0.57602,0.2728 c 1.01371,0.4813 1.43249,0.9956 1.43249,1.6245 0,2.7498 0.93498,5.1638 1.35416,7.1877 0.41918,2.024 0.4545,3.4463 -1.05857,4.9594 -3.16569,3.1657 -8.2664,3.1657 -11.43209,0 -1.51307,-1.5131 -1.47775,-2.9354 -1.05857,-4.9594 0.41918,-2.0239 1.35416,-4.4379 1.35416,-7.1877 0,-0.6972 0.42149,-1.2025 1.42744,-1.675 l 0.58107,-0.2728 0,-0.6417 c 0,-0.4106 -0.0969,-0.4727 -0.15158,-0.5811 -0.0547,-0.1085 -0.10854,-0.2007 -0.1718,-0.3007 -0.12651,-0.1999 -0.28449,-0.4274 -0.47244,-0.6998 -0.3759,-0.5447 -0.86833,-1.2571 -1.37438,-2.0818 -1.01208,-1.6493 -2.05572,-3.7555 -2.30663,-5.692 -0.0178,-0.1372 -0.056,-0.3173 -0.19453,-0.5205 -0.13858,-0.2032 -0.41465,-0.3966 -0.6695,-0.4522 -0.50971,-0.1111 -0.73983,0.073 -0.90446,0.1718 -0.32928,0.197 -0.52358,0.4063 -0.78067,0.672 -0.51419,0.5314 -1.13589,1.2672 -1.78871,1.9959 -0.65283,0.7288 -1.33828,1.4483 -1.86198,1.867 -0.12433,0.099 -0.24006,0.1749 -0.33601,0.235 -0.0957,-0.199 -0.23033,-0.5046 -0.31581,-0.8994 -0.1606,-0.7417 -0.25276,-1.7369 -0.24001,-2.7867 0.0255,-2.0994 0.53383,-4.4346 1.37438,-5.5682 0.54089,-0.7295 2.25727,-1.45007 3.93617,-1.83421 0.83945,-0.19208 1.65509,-0.32462 2.30663,-0.4295 0.22986,-0.037 0.412,-0.069 0.59876,-0.10105 0.15568,0.36297 0.3507,0.85311 0.58614,1.49566 0.51941,1.4176 1.18272,3.3594 1.86703,5.3131 0.6843,1.9537 1.38691,3.9172 2.00093,5.4217 0.30701,0.7522 0.58996,1.385 0.85898,1.8771 0.13451,0.2461 0.25885,0.4573 0.42697,0.6594 0.16812,0.2022 0.37136,0.5486 1.04341,0.5356 0.6669,-0.013 0.84856,-0.3508 1.0131,-0.5532 0.16455,-0.2025 0.28805,-0.414 0.42191,-0.662 0.26774,-0.4958 0.54965,-1.1328 0.85646,-1.8897 0.61363,-1.514 1.31669,-3.4902 2.00093,-5.4521 0.68425,-1.9619 1.34759,-3.908 1.86703,-5.3307 0.23555,-0.6452 0.43033,-1.13871 0.58614,-1.50329 z"
       style="font-size:medium;font-style:normal;font-variant:normal;font-weight:normal;font-stretch:normal;text-indent:0;text-align:start;text-decoration:none;line-height:normal;letter-spacing:normal;word-spacing:normal;text-transform:none;direction:ltr;block-progression:tb;writing-mode:lr-tb;text-anchor:start;baseline-shift:baseline;color:#000000;fill:#d40000;fill-opacity:1;fill-rule:nonzero;stroke:none;stroke-width:25;marker:none;visibility:visible;display:inline;overflow:visible;enable-background:accumulate;font-family:Sans;-inkscape-font-specification:Sans" />
    <path
       id="path3919"
       d="m 502.92568,570.69507 c -0.01,0.014 -0.0379,0.062 -0.043,0.068 -0.0117,0.014 -0.009,-0.022 0.043,-0.068 z"
       style="font-size:medium;font-style:normal;font-variant:normal;font-weight:normal;font-stretch:normal;text-indent:0;text-align:start;text-decoration:none;line-height:normal;letter-spacing:normal;word-spacing:normal;text-transform:none;direction:ltr;block-progression:tb;writing-mode:lr-tb;text-anchor:start;baseline-shift:baseline;color:#000000;fill:#ffffff;fill-opacity:1;fill-rule:nonzero;stroke:none;stroke-width:25;marker:none;visibility:visible;display:inline;overflow:visible;enable-background:accumulate;font-family:Sans;-inkscape-font-specification:Sans"
       inkscape:connector-curvature="0" />
    <path
       id="path3921"
       d="m 503.91351,570.70517 c 0.0346,0.037 0.0438,0.068 0.0354,0.058 -0.004,0 -0.0279,-0.048 -0.0354,-0.058 z"
       style="font-size:medium;font-style:normal;font-variant:normal;font-weight:normal;font-stretch:normal;text-indent:0;text-align:start;text-decoration:none;line-height:normal;letter-spacing:normal;word-spacing:normal;text-transform:none;direction:ltr;block-progression:tb;writing-mode:lr-tb;text-anchor:start;baseline-shift:baseline;color:#000000;fill:#ffffff;fill-opacity:1;fill-rule:nonzero;stroke:none;stroke-width:25;marker:none;visibility:visible;display:inline;overflow:visible;enable-background:accumulate;font-family:Sans;-inkscape-font-specification:Sans"
       inkscape:connector-curvature="0" />
    <path
       id="path3923"
       d="m 498.01936,574.56557 c 0.0108,0.019 0.0316,0.056 0.0328,0.058 0.002,0 -0.015,-0.01 -0.0328,-0.058 z"
       style="font-size:medium;font-style:normal;font-variant:normal;font-weight:normal;font-stretch:normal;text-indent:0;text-align:start;text-decoration:none;line-height:normal;letter-spacing:normal;word-spacing:normal;text-transform:none;direction:ltr;block-progression:tb;writing-mode:lr-tb;text-anchor:start;baseline-shift:baseline;color:#000000;fill:#ffffff;fill-opacity:1;fill-rule:nonzero;stroke:none;stroke-width:25;marker:none;visibility:visible;display:inline;overflow:visible;enable-background:accumulate;font-family:Sans;-inkscape-font-specification:Sans"
       inkscape:connector-curvature="0" />
    <path
       id="path3925"
       d="m 508.82489,574.59837 c -0.0148,0.045 -0.0294,0.052 -0.0278,0.048 10e-4,0 0.0204,-0.034 0.0278,-0.048 z"
       style="font-size:medium;font-style:normal;font-variant:normal;font-weight:normal;font-stretch:normal;text-indent:0;text-align:start;text-decoration:none;line-height:normal;letter-spacing:normal;word-spacing:normal;text-transform:none;direction:ltr;block-progression:tb;writing-mode:lr-tb;text-anchor:start;baseline-shift:baseline;color:#000000;fill:#ffffff;fill-opacity:1;fill-rule:nonzero;stroke:none;stroke-width:25;marker:none;visibility:visible;display:inline;overflow:visible;enable-background:accumulate;font-family:Sans;-inkscape-font-specification:Sans"
       inkscape:connector-curvature="0" />
    <path
       inkscape:transform-center-x="117.50858"
       inkscape:transform-center-y="0.11176234"
       sodipodi:type="arc"
       style="color:#000000;fill:none;stroke:#000000;stroke-width:37.35522079;stroke-linecap:round;stroke-miterlimit:4;stroke-dasharray:none;marker:none;visibility:visible;display:inline;overflow:visible;enable-background:accumulate"
       id="path3967"
       sodipodi:cx="300"
       sodipodi:cy="540.93359"
       sodipodi:rx="162.85715"
       sodipodi:ry="162.85715"
       d="m 462.85715,540.93359 c 0,89.94352 -72.91363,162.85715 -162.85715,162.85715 -89.94352,0 -162.85715,-72.91363 -162.85715,-162.85715 0,-89.94352 72.91363,-162.85714 162.85715,-162.85714 89.94352,0 162.85715,72.91362 162.85715,162.85714 z"
       transform="matrix(3.9865738e-4,0.15952078,0.16397869,-3.878184e-4,422.68423,525.10757)" />
    <path
       style="font-size:medium;font-style:normal;font-variant:normal;font-weight:normal;font-stretch:normal;text-indent:0;text-align:start;text-decoration:none;line-height:normal;letter-spacing:normal;word-spacing:normal;text-transform:none;direction:ltr;block-progression:tb;writing-mode:lr-tb;text-anchor:start;baseline-shift:baseline;color:#000000;fill:#cccccc;fill-opacity:1;stroke:none;stroke-width:39.98925018;marker:none;visibility:visible;display:inline;overflow:visible;enable-background:accumulate;font-family:Sans;-inkscape-font-specification:Sans"
       d="m 501.36479,545.3189 a 3.2790301,3.1898866 0 0 0 -0.18474,0.0462 c -4.94131,1.76284 -9.30476,4.77587 -12.678,8.70602 a 3.2790301,3.1898866 0 0 0 -0.80826,1.9398 3.2790301,3.1898866 0 0 0 5.81941,2.12455 c 2.63115,-3.06553 6.05415,-5.41095 9.90686,-6.78931 -0.1896,0.0346 -0.37772,0.0692 -0.57732,0.0692 -1.78599,0 -3.23301,-1.44702 -3.23301,-3.23301 0,-1.25093 0.71581,-2.32566 1.75506,-2.86352 z"
       id="path3969"
       inkscape:connector-curvature="0" />
    <path
       style="font-size:medium;font-style:normal;font-variant:normal;font-weight:normal;font-stretch:normal;text-indent:0;text-align:start;text-decoration:none;line-height:normal;letter-spacing:normal;word-spacing:normal;text-transform:none;direction:ltr;block-progression:tb;writing-mode:lr-tb;text-anchor:start;baseline-shift:baseline;color:#000000;fill:#cccccc;fill-opacity:1;stroke:none;stroke-width:39.98925018;marker:none;visibility:visible;display:inline;overflow:visible;enable-background:accumulate;font-family:Sans;-inkscape-font-specification:Sans"
       d="m 532.05523,586.12407 a 3.2790301,3.1898866 0 0 0 -2.56328,1.247 c -2.59362,3.0218 -5.95979,5.3344 -9.74521,6.72 0.21052,-0.043 0.44645,-0.069 0.6697,-0.069 1.78599,0 3.23301,1.447 3.23301,3.233 0,1.2625 -0.7463,2.3309 -1.80125,2.8635 4.92972,-1.7642 9.31121,-4.7372 12.678,-8.6598 a 3.2790301,3.1898866 0 0 0 -2.47097,-5.3345 z"
       id="path3971"
       inkscape:connector-curvature="0" />
    <g
       id="g4228"
       transform="matrix(0.64527668,0,0,0.64527668,-122.59983,-74.726398)">
      <path
         sodipodi:nodetypes="ccscc"
         inkscape:connector-curvature="0"
         id="path4089"
         d="m 801.22681,963.97364 0,36.91656 c -0.0589,23.7846 -19.74499,42.8427 -43.97012,42.7854 -24.22514,-0.057 -43.81575,-19.2082 -43.75691,-42.8891 l -7e-5,-36.81286"
         style="color:#000000;fill:none;stroke:#000000;stroke-width:9.36286354;stroke-linecap:round;stroke-linejoin:miter;stroke-miterlimit:4;stroke-opacity:1;stroke-dasharray:none;stroke-dashoffset:0;marker:none;visibility:visible;display:inline;overflow:visible;enable-background:accumulate" />
      <path
         sodipodi:nodetypes="cc"
         inkscape:connector-curvature="0"
         id="path4091"
         d="m 713.37813,986.34004 0.24316,-22.3664"
         style="color:#000000;fill:none;stroke:#cccccc;stroke-width:9.95608997;stroke-linecap:round;stroke-miterlimit:4;marker:none;visibility:visible;display:inline;overflow:visible;enable-background:accumulate" />
      <path
         id="path4094"
         d="m 801.32345,958.59375 a 5.3173294,5.3173294 0 0 1 5.21875,5.375 l 0,21.09375 c -0.61549,-2.36497 -2.75484,-4.125 -5.3125,-4.125 -2.54602,0 -4.68593,1.74518 -5.3125,4.09375 l 0,-21.0625 a 5.3173294,5.3173294 0 0 1 5.40625,-5.375 z"
         style="font-size:medium;font-style:normal;font-variant:normal;font-weight:normal;font-stretch:normal;text-indent:0;text-align:start;text-decoration:none;line-height:normal;letter-spacing:normal;word-spacing:normal;text-transform:none;direction:ltr;block-progression:tb;writing-mode:lr-tb;text-anchor:start;baseline-shift:baseline;color:#000000;fill:#cccccc;fill-opacity:1;stroke:none;stroke-width:10.63359547;marker:none;visibility:visible;display:inline;overflow:visible;enable-background:accumulate;font-family:Sans;-inkscape-font-specification:Sans"
         inkscape:connector-curvature="0" />
      <path
         transform="matrix(-0.13704618,0,0,0.15417694,701.58304,938.87989)"
         d="m -46.821194,162.7594 c 0,19.70182 -17.967913,35.67329 -40.132457,35.67329 -22.164549,0 -40.132459,-15.97147 -40.132459,-35.67329 0,-19.70182 17.96791,-35.67329 40.132459,-35.67329 22.164544,0 40.132457,15.97147 40.132457,35.67329 z"
         sodipodi:ry="35.673294"
         sodipodi:rx="40.132458"
         sodipodi:cy="162.7594"
         sodipodi:cx="-86.953651"
         id="path4105"
         style="color:#000000;fill:#e6e6e6;fill-opacity:1;fill-rule:nonzero;stroke:none;stroke-width:40.35972595;marker:none;visibility:visible;display:inline;overflow:visible;enable-background:accumulate"
         sodipodi:type="arc" />
    </g>
    <g
       id="g4214"
       transform="matrix(0.59793426,0,0,0.59793426,-95.19833,-22.107948)">
      <path
         transform="matrix(-0.13704618,0,0,0.15417694,584.58936,991.48016)"
         d="m -46.821194,162.7594 c 0,19.70182 -17.967913,35.67329 -40.132457,35.67329 -22.164549,0 -40.132459,-15.97147 -40.132459,-35.67329 0,-19.70182 17.96791,-35.67329 40.132459,-35.67329 22.164544,0 40.132457,15.97147 40.132457,35.67329 z"
         sodipodi:ry="35.673294"
         sodipodi:rx="40.132458"
         sodipodi:cy="162.7594"
         sodipodi:cx="-86.953651"
         id="path4202"
         style="color:#000000;fill:#cccccc;fill-opacity:1;fill-rule:nonzero;stroke:none;stroke-width:40.35972595;marker:none;visibility:visible;display:inline;overflow:visible;enable-background:accumulate"
         sodipodi:type="arc" />
      <path
         transform="matrix(-0.13704618,0,0,0.15417694,618.08333,927.26844)"
         d="m -46.821194,162.7594 c 0,19.70182 -17.967913,35.67329 -40.132457,35.67329 -22.164549,0 -40.132459,-15.97147 -40.132459,-35.67329 0,-19.70182 17.96791,-35.67329 40.132459,-35.67329 22.164544,0 40.132457,15.97147 40.132457,35.67329 z"
         sodipodi:ry="35.673294"
         sodipodi:rx="40.132458"
         sodipodi:cy="162.7594"
         sodipodi:cx="-86.953651"
         id="path4200"
         style="color:#000000;fill:#cccccc;fill-opacity:1;fill-rule:nonzero;stroke:none;stroke-width:40.35972595;marker:none;visibility:visible;display:inline;overflow:visible;enable-background:accumulate"
         sodipodi:type="arc" />
      <path
         style="fill:none;stroke:#000000;stroke-width:10.10418415;stroke-linecap:round;stroke-linejoin:round;stroke-opacity:1"
         d="m 610,952.36218 37.90361,2e-5 c 0,0 24.09639,0 24.09639,25 0,25 -24.09639,25 -24.09639,25 l -37.90361,0 62,35"
         id="path4174"
         inkscape:connector-curvature="0"
         sodipodi:nodetypes="ccsccc" />
      <path
         style="fill:none;stroke:#000000;stroke-width:10.10418415;stroke-linecap:round;stroke-linejoin:miter;stroke-opacity:1"
         d="m 596.50603,952.36218 0,85.00002"
         id="path4176"
         inkscape:connector-curvature="0"
         sodipodi:nodetypes="cc" />
      <path
         inkscape:connector-curvature="0"
         style="font-size:medium;font-style:normal;font-variant:normal;font-weight:normal;font-stretch:normal;text-indent:0;text-align:start;text-decoration:none;line-height:normal;letter-spacing:normal;word-spacing:normal;text-transform:none;direction:ltr;block-progression:tb;writing-mode:lr-tb;text-anchor:start;baseline-shift:baseline;color:#000000;fill:#cccccc;fill-opacity:1;stroke:none;stroke-width:10.63359547;marker:none;visibility:visible;display:inline;overflow:visible;enable-background:accumulate;font-family:Sans;-inkscape-font-specification:Sans"
         d="m 596.59978,1043.3614 a 5.3173294,5.3173294 0 0 0 5.21875,-5.375 l 0,-21.0938 c -0.61549,2.365 -2.75484,4.125 -5.3125,4.125 -2.54602,0 -4.68593,-1.7451 -5.3125,-4.0937 l 0,21.0625 a 5.3173294,5.3173294 0 0 0 5.40625,5.375 z"
         id="path4186" />
      <g
         id="g4204">
        <path
           sodipodi:nodetypes="cc"
           inkscape:connector-curvature="0"
           id="path4188"
           d="m 596.38445,974.22838 0.24316,-22.3664"
           style="color:#000000;fill:none;stroke:#cccccc;stroke-width:10.74438095;stroke-linecap:round;stroke-miterlimit:4;marker:none;visibility:visible;display:inline;overflow:visible;enable-background:accumulate" />
        <path
           transform="matrix(-0.13704618,0,0,0.15417694,584.58936,926.76823)"
           d="m -46.821194,162.7594 c 0,19.70182 -17.967913,35.67329 -40.132457,35.67329 -22.164549,0 -40.132459,-15.97147 -40.132459,-35.67329 0,-19.70182 17.96791,-35.67329 40.132459,-35.67329 22.164544,0 40.132457,15.97147 40.132457,35.67329 z"
           sodipodi:ry="35.673294"
           sodipodi:rx="40.132458"
           sodipodi:cy="162.7594"
           sodipodi:cx="-86.953651"
           id="path4190"
           style="color:#000000;fill:#e6e6e6;fill-opacity:1;fill-rule:nonzero;stroke:none;stroke-width:40.35972595;marker:none;visibility:visible;display:inline;overflow:visible;enable-background:accumulate"
           sodipodi:type="arc" />
      </g>
      <path
         id="path4196"
         d="m 603,952.36218 a 5.3173294,5.3173294 0 0 0 5.375,5.21881 l 21.0938,0 c -2.365,-0.61551 -4.125,-2.75491 -4.125,-5.31251 0,-2.546 1.7451,-4.686 4.0937,-5.3125 l -21.0625,0 a 5.3173294,5.3173294 0 0 0 -5.375,5.4062 z"
         style="font-size:medium;font-style:normal;font-variant:normal;font-weight:normal;font-stretch:normal;text-indent:0;text-align:start;text-decoration:none;line-height:normal;letter-spacing:normal;word-spacing:normal;text-transform:none;direction:ltr;block-progression:tb;writing-mode:lr-tb;text-anchor:start;baseline-shift:baseline;color:#000000;fill:#cccccc;fill-opacity:1;stroke:none;stroke-width:10.63359547;marker:none;visibility:visible;display:inline;overflow:visible;enable-background:accumulate;font-family:Sans;-inkscape-font-specification:Sans"
         inkscape:connector-curvature="0" />
      <g
         inkscape:transform-center-x="9.6765949"
         inkscape:transform-center-y="-5.3521702"
         transform="matrix(-0.48206389,0.87613607,-0.87613607,-0.48206389,1793.5006,973.59212)"
         id="g4208">
        <path
           style="color:#000000;fill:none;stroke:#cccccc;stroke-width:10.74438095;stroke-linecap:round;stroke-miterlimit:4;marker:none;visibility:visible;display:inline;overflow:visible;enable-background:accumulate"
           d="m 596.38445,974.22838 0.24316,-22.3664"
           id="path4210"
           inkscape:connector-curvature="0"
           sodipodi:nodetypes="cc" />
        <path
           sodipodi:type="arc"
           style="color:#000000;fill:#e6e6e6;fill-opacity:1;fill-rule:nonzero;stroke:none;stroke-width:40.35972595;marker:none;visibility:visible;display:inline;overflow:visible;enable-background:accumulate"
           id="path4212"
           sodipodi:cx="-86.953651"
           sodipodi:cy="162.7594"
           sodipodi:rx="40.132458"
           sodipodi:ry="35.673294"
           d="m -46.821194,162.7594 c 0,19.70182 -17.967913,35.67329 -40.132457,35.67329 -22.164549,0 -40.132459,-15.97147 -40.132459,-35.67329 0,-19.70182 17.96791,-35.67329 40.132459,-35.67329 22.164544,0 40.132457,15.97147 40.132457,35.67329 z"
           transform="matrix(-0.13704618,0,0,0.15417694,584.58936,926.76823)" />
      </g>
    </g>
    <path
       transform="matrix(3.9865738e-4,0.15952078,0.16397869,-3.878184e-4,422.68423,525.10757)"
       d="m 462.85715,540.93359 c 0,89.94352 -72.91363,162.85715 -162.85715,162.85715 -89.94352,0 -162.85715,-72.91363 -162.85715,-162.85715 0,-89.94352 72.91363,-162.85714 162.85715,-162.85714 89.94352,0 162.85715,72.91362 162.85715,162.85714 z"
       sodipodi:ry="162.85715"
       sodipodi:rx="162.85715"
       sodipodi:cy="540.93359"
       sodipodi:cx="300"
       id="path3924"
       style="color:#000000;fill:none;stroke:#000000;stroke-width:37.35522079;stroke-linecap:round;stroke-miterlimit:4;stroke-dasharray:none;marker:none;visibility:visible;display:inline;overflow:visible;enable-background:accumulate"
       sodipodi:type="arc"
       inkscape:transform-center-y="0.11176234"
       inkscape:transform-center-x="117.50858" />
    <path
       inkscape:connector-curvature="0"
       id="path3926"
       d="m 501.36479,545.3189 a 3.2790301,3.1898866 0 0 0 -0.18474,0.0462 c -4.94131,1.76284 -9.30476,4.77587 -12.678,8.70602 a 3.2790301,3.1898866 0 0 0 -0.80826,1.9398 3.2790301,3.1898866 0 0 0 5.81941,2.12455 c 2.63115,-3.06553 6.05415,-5.41095 9.90686,-6.78931 -0.1896,0.0346 -0.37772,0.0692 -0.57732,0.0692 -1.78599,0 -3.23301,-1.44702 -3.23301,-3.23301 0,-1.25093 0.71581,-2.32566 1.75506,-2.86352 z"
       style="font-size:medium;font-style:normal;font-variant:normal;font-weight:normal;font-stretch:normal;text-indent:0;text-align:start;text-decoration:none;line-height:normal;letter-spacing:normal;word-spacing:normal;text-transform:none;direction:ltr;block-progression:tb;writing-mode:lr-tb;text-anchor:start;baseline-shift:baseline;color:#000000;fill:#cccccc;fill-opacity:1;stroke:none;stroke-width:39.98925018;marker:none;visibility:visible;display:inline;overflow:visible;enable-background:accumulate;font-family:Sans;-inkscape-font-specification:Sans" />
    <path
       inkscape:connector-curvature="0"
       id="path3928"
       d="m 532.05523,586.12407 a 3.2790301,3.1898866 0 0 0 -2.56328,1.247 c -2.59362,3.0218 -5.95979,5.3344 -9.74521,6.72 0.21052,-0.043 0.44645,-0.069 0.6697,-0.069 1.78599,0 3.23301,1.447 3.23301,3.233 0,1.2625 -0.7463,2.3309 -1.80125,2.8635 4.92972,-1.7642 9.31121,-4.7372 12.678,-8.6598 a 3.2790301,3.1898866 0 0 0 -2.47097,-5.3345 z"
       style="font-size:medium;font-style:normal;font-variant:normal;font-weight:normal;font-stretch:normal;text-indent:0;text-align:start;text-decoration:none;line-height:normal;letter-spacing:normal;word-spacing:normal;text-transform:none;direction:ltr;block-progression:tb;writing-mode:lr-tb;text-anchor:start;baseline-shift:baseline;color:#000000;fill:#cccccc;fill-opacity:1;stroke:none;stroke-width:39.98925018;marker:none;visibility:visible;display:inline;overflow:visible;enable-background:accumulate;font-family:Sans;-inkscape-font-specification:Sans" />
    <path
       style="font-size:medium;font-style:normal;font-variant:normal;font-weight:normal;font-stretch:normal;text-indent:0;text-align:start;text-decoration:none;line-height:normal;letter-spacing:normal;word-spacing:normal;text-transform:none;direction:ltr;block-progression:tb;writing-mode:lr-tb;text-anchor:start;baseline-shift:baseline;color:#000000;fill:#d40000;fill-opacity:1;fill-rule:nonzero;stroke:none;stroke-width:25;marker:none;visibility:visible;display:inline;overflow:visible;enable-background:accumulate;font-family:Sans;-inkscape-font-specification:Sans"
       d="m 518.26868,557.20141 c 0.18648,0.032 0.36913,0.0615 0.59876,0.0985 0.65131,0.10511 1.46719,0.2418 2.30663,0.43455 1.67887,0.38549 3.39509,1.10401 3.93617,1.83421 0.84129,1.1353 1.35152,3.4724 1.37691,5.5733 0.0127,1.0505 -0.0818,2.0465 -0.24254,2.7892 -0.0862,0.3984 -0.21983,0.7075 -0.31581,0.907 -0.0963,-0.06 -0.2107,-0.1375 -0.33601,-0.2375 -0.52341,-0.4176 -1.20915,-1.1344 -1.86198,-1.862 -0.65283,-0.7276 -1.27663,-1.4629 -1.79123,-1.9933 -0.2573,-0.2653 -0.4494,-0.4729 -0.78067,-0.6695 -0.16564,-0.098 -0.40029,-0.2845 -0.90951,-0.1693 -0.25462,0.058 -0.52769,0.2524 -0.66446,0.4547 -0.13676,0.2024 -0.17437,0.3811 -0.192,0.518 -0.25125,1.9489 -1.29574,4.0726 -2.30916,5.7425 -0.50671,0.835 -0.9994,1.5558 -1.3769,2.1146 -0.18875,0.2795 -0.34717,0.5155 -0.47497,0.7251 -0.0639,0.1048 -0.11994,0.2016 -0.17432,0.3158 -0.0544,0.1143 -0.14148,0.2014 -0.14148,0.571 l 0,0.6392 0.57602,0.2728 c 1.01371,0.4813 1.43249,0.9956 1.43249,1.6245 0,2.7498 0.93498,5.1638 1.35416,7.1877 0.41918,2.024 0.4545,3.4463 -1.05857,4.9594 -3.16569,3.1657 -8.2664,3.1657 -11.43209,0 -1.51307,-1.5131 -1.47775,-2.9354 -1.05857,-4.9594 0.41918,-2.0239 1.35416,-4.4379 1.35416,-7.1877 0,-0.6972 0.42149,-1.2025 1.42744,-1.675 l 0.58107,-0.2728 0,-0.6417 c 0,-0.4106 -0.0969,-0.4727 -0.15158,-0.5811 -0.0547,-0.1085 -0.10854,-0.2007 -0.1718,-0.3007 -0.12651,-0.1999 -0.28449,-0.4274 -0.47244,-0.6998 -0.3759,-0.5447 -0.86833,-1.2571 -1.37438,-2.0818 -1.01208,-1.6493 -2.05572,-3.7555 -2.30663,-5.692 -0.0178,-0.1372 -0.056,-0.3173 -0.19453,-0.5205 -0.13858,-0.2032 -0.41465,-0.3966 -0.6695,-0.4522 -0.50971,-0.1111 -0.73983,0.073 -0.90446,0.1718 -0.32928,0.197 -0.52358,0.4063 -0.78067,0.672 -0.51419,0.5314 -1.13589,1.2672 -1.78871,1.9959 -0.65283,0.7288 -1.33828,1.4483 -1.86198,1.867 -0.12433,0.099 -0.24006,0.1749 -0.33601,0.235 -0.0957,-0.199 -0.23033,-0.5046 -0.31581,-0.8994 -0.1606,-0.7417 -0.25276,-1.7369 -0.24001,-2.7867 0.0255,-2.0994 0.53383,-4.4346 1.37438,-5.5682 0.54089,-0.7295 2.25727,-1.45007 3.93617,-1.83421 0.83945,-0.19208 1.65509,-0.32462 2.30663,-0.4295 0.22986,-0.037 0.412,-0.069 0.59876,-0.10105 0.15568,0.36297 0.3507,0.85311 0.58614,1.49566 0.51941,1.4176 1.18272,3.3594 1.86703,5.3131 0.6843,1.9537 1.38691,3.9172 2.00093,5.4217 0.30701,0.7522 0.58996,1.385 0.85898,1.8771 0.13451,0.2461 0.25885,0.4573 0.42697,0.6594 0.16812,0.2022 0.37136,0.5486 1.04341,0.5356 0.6669,-0.013 0.84856,-0.3508 1.0131,-0.5532 0.16455,-0.2025 0.28805,-0.414 0.42191,-0.662 0.26774,-0.4958 0.54965,-1.1328 0.85646,-1.8897 0.61363,-1.514 1.31669,-3.4902 2.00093,-5.4521 0.68425,-1.9619 1.34759,-3.908 1.86703,-5.3307 0.23555,-0.6452 0.43033,-1.13871 0.58614,-1.50329 z"
       id="path3936"
       inkscape:connector-curvature="0" />
    <path
       inkscape:connector-curvature="0"
       style="font-size:medium;font-style:normal;font-variant:normal;font-weight:normal;font-stretch:normal;text-indent:0;text-align:start;text-decoration:none;line-height:normal;letter-spacing:normal;word-spacing:normal;text-transform:none;direction:ltr;block-progression:tb;writing-mode:lr-tb;text-anchor:start;baseline-shift:baseline;color:#000000;fill:#ffffff;fill-opacity:1;fill-rule:nonzero;stroke:none;stroke-width:25;marker:none;visibility:visible;display:inline;overflow:visible;enable-background:accumulate;font-family:Sans;-inkscape-font-specification:Sans"
       d="m 502.92568,570.69507 c -0.01,0.014 -0.0379,0.062 -0.043,0.068 -0.0117,0.014 -0.009,-0.022 0.043,-0.068 z"
       id="path3938" />
    <path
       inkscape:connector-curvature="0"
       style="font-size:medium;font-style:normal;font-variant:normal;font-weight:normal;font-stretch:normal;text-indent:0;text-align:start;text-decoration:none;line-height:normal;letter-spacing:normal;word-spacing:normal;text-transform:none;direction:ltr;block-progression:tb;writing-mode:lr-tb;text-anchor:start;baseline-shift:baseline;color:#000000;fill:#ffffff;fill-opacity:1;fill-rule:nonzero;stroke:none;stroke-width:25;marker:none;visibility:visible;display:inline;overflow:visible;enable-background:accumulate;font-family:Sans;-inkscape-font-specification:Sans"
       d="m 503.91351,570.70517 c 0.0346,0.037 0.0438,0.068 0.0354,0.058 -0.004,0 -0.0279,-0.048 -0.0354,-0.058 z"
       id="path3940" />
    <path
       inkscape:connector-curvature="0"
       style="font-size:medium;font-style:normal;font-variant:normal;font-weight:normal;font-stretch:normal;text-indent:0;text-align:start;text-decoration:none;line-height:normal;letter-spacing:normal;word-spacing:normal;text-transform:none;direction:ltr;block-progression:tb;writing-mode:lr-tb;text-anchor:start;baseline-shift:baseline;color:#000000;fill:#ffffff;fill-opacity:1;fill-rule:nonzero;stroke:none;stroke-width:25;marker:none;visibility:visible;display:inline;overflow:visible;enable-background:accumulate;font-family:Sans;-inkscape-font-specification:Sans"
       d="m 498.01936,574.56557 c 0.0108,0.019 0.0316,0.056 0.0328,0.058 0.002,0 -0.015,-0.01 -0.0328,-0.058 z"
       id="path3942" />
    <path
       inkscape:connector-curvature="0"
       style="font-size:medium;font-style:normal;font-variant:normal;font-weight:normal;font-stretch:normal;text-indent:0;text-align:start;text-decoration:none;line-height:normal;letter-spacing:normal;word-spacing:normal;text-transform:none;direction:ltr;block-progression:tb;writing-mode:lr-tb;text-anchor:start;baseline-shift:baseline;color:#000000;fill:#ffffff;fill-opacity:1;fill-rule:nonzero;stroke:none;stroke-width:25;marker:none;visibility:visible;display:inline;overflow:visible;enable-background:accumulate;font-family:Sans;-inkscape-font-specification:Sans"
       d="m 508.82489,574.59837 c -0.0148,0.045 -0.0294,0.052 -0.0278,0.048 10e-4,0 0.0204,-0.034 0.0278,-0.048 z"
       id="path3944" />
    <path
       style="font-size:medium;font-style:normal;font-variant:normal;font-weight:normal;font-stretch:normal;text-indent:0;text-align:start;text-decoration:none;line-height:normal;letter-spacing:normal;word-spacing:normal;text-transform:none;direction:ltr;block-progression:tb;writing-mode:lr-tb;text-anchor:start;baseline-shift:baseline;color:#000000;fill:#000000;fill-opacity:1;stroke:none;stroke-width:37.35522079;marker:none;visibility:visible;display:inline;overflow:visible;enable-background:accumulate;font-family:Sans;-inkscape-font-specification:Sans"
       d="m 481.73879,572.82437 c -0.0399,-15.95803 13.29085,-28.98956 29.69489,-29.02836 16.40404,-0.0388 29.79975,12.92952 29.83963,28.88756 0.0399,15.9581 -13.29085,28.9897 -29.69489,29.0285 -16.40404,0.039 -29.79975,-12.9296 -29.83963,-28.8877 z m 6.12358,-0.014 c 0.0318,12.7376 10.60756,22.9759 23.70116,22.945 13.0936,-0.031 23.61803,-10.3192 23.5862,-23.0569 -0.0318,-12.7376 -10.60756,-22.97592 -23.70116,-22.94495 -13.0936,0.031 -23.61803,10.31915 -23.5862,23.05685 z"
       id="path3946"
       inkscape:connector-curvature="0" />
    <path
       inkscape:connector-curvature="0"
       id="path3948"
       d="m 501.36479,545.3189 a 3.2790301,3.1898866 0 0 0 -0.18474,0.0462 c -4.94131,1.76284 -9.30476,4.77587 -12.678,8.70602 a 3.2790301,3.1898866 0 0 0 -0.80826,1.9398 3.2790301,3.1898866 0 0 0 5.81941,2.12455 c 2.63115,-3.06553 6.05415,-5.41095 9.90686,-6.78931 -0.1896,0.0346 -0.37772,0.0692 -0.57732,0.0692 -1.78599,0 -3.23301,-1.44702 -3.23301,-3.23301 0,-1.25093 0.71581,-2.32566 1.75506,-2.86352 z"
       style="font-size:medium;font-style:normal;font-variant:normal;font-weight:normal;font-stretch:normal;text-indent:0;text-align:start;text-decoration:none;line-height:normal;letter-spacing:normal;word-spacing:normal;text-transform:none;direction:ltr;block-progression:tb;writing-mode:lr-tb;text-anchor:start;baseline-shift:baseline;color:#000000;fill:#cccccc;fill-opacity:1;stroke:none;stroke-width:39.98925018;marker:none;visibility:visible;display:inline;overflow:visible;enable-background:accumulate;font-family:Sans;-inkscape-font-specification:Sans" />
    <path
       inkscape:connector-curvature="0"
       id="path3950"
       d="m 532.05523,586.12407 a 3.2790301,3.1898866 0 0 0 -2.56328,1.247 c -2.59362,3.0218 -5.95979,5.3344 -9.74521,6.72 0.21052,-0.043 0.44645,-0.069 0.6697,-0.069 1.78599,0 3.23301,1.447 3.23301,3.233 0,1.2625 -0.7463,2.3309 -1.80125,2.8635 4.92972,-1.7642 9.31121,-4.7372 12.678,-8.6598 a 3.2790301,3.1898866 0 0 0 -2.47097,-5.3345 z"
       style="font-size:medium;font-style:normal;font-variant:normal;font-weight:normal;font-stretch:normal;text-indent:0;text-align:start;text-decoration:none;line-height:normal;letter-spacing:normal;word-spacing:normal;text-transform:none;direction:ltr;block-progression:tb;writing-mode:lr-tb;text-anchor:start;baseline-shift:baseline;color:#000000;fill:#cccccc;fill-opacity:1;stroke:none;stroke-width:39.98925018;marker:none;visibility:visible;display:inline;overflow:visible;enable-background:accumulate;font-family:Sans;-inkscape-font-specification:Sans" />
    <path
       style="font-size:medium;font-style:normal;font-variant:normal;font-weight:normal;font-stretch:normal;text-indent:0;text-align:start;text-decoration:none;line-height:normal;letter-spacing:normal;word-spacing:normal;text-transform:none;direction:ltr;block-progression:tb;writing-mode:lr-tb;text-anchor:start;baseline-shift:baseline;color:#000000;fill:#000000;fill-opacity:1;stroke:none;stroke-width:37.35522079;marker:none;visibility:visible;display:inline;overflow:visible;enable-background:accumulate;font-family:Sans;-inkscape-font-specification:Sans"
       d="m 481.73879,572.82437 c -0.0399,-15.95803 13.29085,-28.98956 29.69489,-29.02836 16.40404,-0.0388 29.79975,12.92952 29.83963,28.88756 0.0399,15.9581 -13.29085,28.9897 -29.69489,29.0285 -16.40404,0.039 -29.79975,-12.9296 -29.83963,-28.8877 z m 6.12358,-0.014 c 0.0318,12.7376 10.60756,22.9759 23.70116,22.945 13.0936,-0.031 23.61803,-10.3192 23.5862,-23.0569 -0.0318,-12.7376 -10.60756,-22.97592 -23.70116,-22.94495 -13.0936,0.031 -23.61803,10.31915 -23.5862,23.05685 z"
       id="path3952"
       inkscape:connector-curvature="0" />
    <path
       style="font-size:medium;font-style:normal;font-variant:normal;font-weight:normal;font-stretch:normal;text-indent:0;text-align:start;text-decoration:none;line-height:normal;letter-spacing:normal;word-spacing:normal;text-transform:none;direction:ltr;block-progression:tb;writing-mode:lr-tb;text-anchor:start;baseline-shift:baseline;color:#000000;fill:#cccccc;fill-opacity:1;stroke:none;stroke-width:39.98925018;marker:none;visibility:visible;display:inline;overflow:visible;enable-background:accumulate;font-family:Sans;-inkscape-font-specification:Sans"
       d="m 501.36479,545.3189 a 3.2790301,3.1898866 0 0 0 -0.18474,0.0462 c -4.94131,1.76284 -9.30476,4.77587 -12.678,8.70602 a 3.2790301,3.1898866 0 0 0 -0.80826,1.9398 3.2790301,3.1898866 0 0 0 5.81941,2.12455 c 2.63115,-3.06553 6.05415,-5.41095 9.90686,-6.78931 -0.1896,0.0346 -0.37772,0.0692 -0.57732,0.0692 -1.78599,0 -3.23301,-1.44702 -3.23301,-3.23301 0,-1.25093 0.71581,-2.32566 1.75506,-2.86352 z"
       id="path3954"
       inkscape:connector-curvature="0" />
    <path
       style="font-size:medium;font-style:normal;font-variant:normal;font-weight:normal;font-stretch:normal;text-indent:0;text-align:start;text-decoration:none;line-height:normal;letter-spacing:normal;word-spacing:normal;text-transform:none;direction:ltr;block-progression:tb;writing-mode:lr-tb;text-anchor:start;baseline-shift:baseline;color:#000000;fill:#cccccc;fill-opacity:1;stroke:none;stroke-width:39.98925018;marker:none;visibility:visible;display:inline;overflow:visible;enable-background:accumulate;font-family:Sans;-inkscape-font-specification:Sans"
       d="m 532.05523,586.12407 a 3.2790301,3.1898866 0 0 0 -2.56328,1.247 c -2.59362,3.0218 -5.95979,5.3344 -9.74521,6.72 0.21052,-0.043 0.44645,-0.069 0.6697,-0.069 1.78599,0 3.23301,1.447 3.23301,3.233 0,1.2625 -0.7463,2.3309 -1.80125,2.8635 4.92972,-1.7642 9.31121,-4.7372 12.678,-8.6598 a 3.2790301,3.1898866 0 0 0 -2.47097,-5.3345 z"
       id="path3956"
       inkscape:connector-curvature="0" />
    <path
       inkscape:connector-curvature="0"
       id="path4074"
       d="m 227.02214,499.95437 a 3.2125381,3.2125381 0 0 0 -0.625,0.125 c -0.0215,0.006 -0.0412,0.0247 -0.0625,0.0312 a 3.2125381,3.2125381 0 0 0 -1.0625,0.5625 c -0.0113,0.009 -0.02,0.0222 -0.0312,0.0312 a 3.2125381,3.2125381 0 0 0 -0.4375,0.40625 c -0.0285,0.0333 -0.0665,0.0592 -0.0937,0.0937 a 3.2125381,3.2125381 0 0 0 -0.25,0.4375 c -0.029,0.0518 -0.0674,0.10253 -0.0937,0.15625 a 3.2125381,3.2125381 0 0 0 -0.0937,0.21875 c -0.0376,0.0927 -0.0954,0.1837 -0.125,0.28125 -0.52797,1.73783 0.48092,3.56578 2.21875,4.09375 0.29998,0.0911 0.57636,0.11991 0.875,0.125 l 11.875,3.75 a 3.2125381,3.2125381 0 0 0 1.40625,0.15625 l 54.21855,16.4689 c 0.0108,0.009 0.0203,0.0221 0.0312,0.0312 0.32808,0.2736 0.69054,0.46176 1.125,0.59375 0.27915,0.0848 0.56532,0.14619 0.84375,0.15625 l 11.43755,3.4688 c 1.61551,0.51025 3.56604,-0.5272 4.03125,-2.15625 0.45226,-1.59391 -0.59701,-3.44212 -2.1875,-3.90625 l -11.46875,-3.5 c -0.23022,-0.13951 -0.4806,-0.2619 -0.75,-0.34375 -0.43446,-0.13199 -0.85642,-0.16986 -1.28125,-0.125 l -54.65625,-16.59375 a 3.2125381,3.2125381 0 0 0 -0.8125,-0.375 l -12.75,-4.03125 a 3.2125381,3.2125381 0 0 0 -1.28125,-0.15625 z"
       style="color:#000000;fill:#cccccc;fill-opacity:1;fill-rule:nonzero;stroke:#ffffff;stroke-width:2;marker:none;visibility:visible;display:inline;overflow:visible;enable-background:accumulate" />
    <g
       id="g4023"
       transform="matrix(0.290689,-0.95681759,0.95681759,0.290689,-782.32851,817.63187)">
      <path
         sodipodi:type="arc"
         style="color:#000000;fill:#cccccc;fill-opacity:1;fill-rule:nonzero;stroke:none;stroke-width:40.35972595;marker:none;visibility:visible;display:inline;overflow:visible;enable-background:accumulate"
         id="path3987"
         sodipodi:cx="-86.953651"
         sodipodi:cy="162.7594"
         sodipodi:rx="40.132458"
         sodipodi:ry="35.673294"
         d="m -46.821194,162.7594 c 0,19.70182 -17.967913,35.67329 -40.132457,35.67329 -22.164549,0 -40.132459,-15.97147 -40.132459,-35.67329 0,-19.70182 17.96791,-35.67329 40.132459,-35.67329 22.164544,0 40.132457,15.97147 40.132457,35.67329 z"
         transform="matrix(-0.08194461,0,0,0.09218767,587.16929,932.34014)" />
      <path
         sodipodi:nodetypes="cc"
         inkscape:connector-curvature="0"
         id="path3993"
         d="m 594.29467,875.22628 0,84.66641"
         style="fill:none;stroke:#000000;stroke-width:6.04163885;stroke-linecap:round;stroke-linejoin:miter;stroke-opacity:1" />
      <path
         sodipodi:nodetypes="cccsccc"
         id="path3995"
         d="m 594.35073,963.36171 c 1.65655,-0.0306 3.13872,-1.55717 3.12047,-3.2139 l 0,-12.61271 c -0.36803,1.41412 -1.64722,2.46648 -3.17653,2.46648 -1.52235,0 -2.80188,-1.04345 -3.17652,-2.44776 l 0,12.59399 c -0.0186,1.69407 1.53865,3.24233 3.23258,3.2139 z"
         style="font-size:medium;font-style:normal;font-variant:normal;font-weight:normal;font-stretch:normal;text-indent:0;text-align:start;text-decoration:none;line-height:normal;letter-spacing:normal;word-spacing:normal;text-transform:none;direction:ltr;block-progression:tb;writing-mode:lr-tb;text-anchor:start;baseline-shift:baseline;color:#000000;fill:#cccccc;fill-opacity:1;stroke:none;stroke-width:10.63359547;marker:none;visibility:visible;display:inline;overflow:visible;enable-background:accumulate;font-family:Sans;-inkscape-font-specification:Sans"
         inkscape:connector-curvature="0" />
      <g
         transform="matrix(0.59793426,0,0,0.59793426,237.62328,305.50018)"
         id="g3997">
        <path
           style="color:#000000;fill:none;stroke:#cccccc;stroke-width:10.74438095;stroke-linecap:round;stroke-miterlimit:4;marker:none;visibility:visible;display:inline;overflow:visible;enable-background:accumulate"
           d="m 596.38445,974.22838 0.24316,-22.3664"
           id="path3999"
           inkscape:connector-curvature="0"
           sodipodi:nodetypes="cc" />
        <path
           sodipodi:type="arc"
           style="color:#000000;fill:#e6e6e6;fill-opacity:1;fill-rule:nonzero;stroke:none;stroke-width:40.35972595;marker:none;visibility:visible;display:inline;overflow:visible;enable-background:accumulate"
           id="path4001"
           sodipodi:cx="-86.953651"
           sodipodi:cy="162.7594"
           sodipodi:rx="40.132458"
           sodipodi:ry="35.673294"
           d="m -46.821194,162.7594 c 0,19.70182 -17.967913,35.67329 -40.132457,35.67329 -22.164549,0 -40.132459,-15.97147 -40.132459,-35.67329 0,-19.70182 17.96791,-35.67329 40.132459,-35.67329 22.164544,0 40.132457,15.97147 40.132457,35.67329 z"
           transform="matrix(-0.13704618,0,0,0.15417694,584.58936,926.76823)" />
      </g>
    </g>
    <path
       transform="matrix(0.62359789,0,0,0.62359789,-132.45343,-90.866878)"
       inkscape:transform-center-y="0.6925057"
       inkscape:transform-center-x="-0.31741799"
       d="m 533.53268,925.88072 c 1.03039,-0.80231 11.64461,4.45034 12.98925,4.34109 1.34464,-0.10924 6.01092,-4.86925 7.13073,-4.08919 1.11982,0.78006 -1.75481,9.75512 -1.10447,10.88284 0.65035,1.12772 9.83123,3.4524 9.42228,4.72163 -0.40896,1.26923 -8.89398,2.23438 -9.87055,3.14151 -0.97657,0.90714 -2.7908,10.16004 -4.13314,10.19479 -1.34234,0.0348 -5.08657,-7.46763 -6.21508,-8.10074 -1.1285,-0.63311 -11.45203,1.44757 -11.96525,0.27008 -0.51322,-1.17749 6.29858,-7.63128 6.72167,-8.91077 0.42309,-1.2795 -4.00583,-11.64893 -2.97544,-12.45124 z"
       inkscape:randomized="-0.085"
       inkscape:rounded="0.12"
       inkscape:flatsided="false"
       sodipodi:arg2="-1.6691201"
       sodipodi:arg1="-2.2974387"
       sodipodi:r2="8.3899088"
       sodipodi:r1="16.779818"
       sodipodi:cy="939.21094"
       sodipodi:cx="545.96863"
       sodipodi:sides="5"
       id="path4095"
       style="color:#000000;fill:#ffcc00;fill-opacity:1;fill-rule:nonzero;stroke:#808080;stroke-width:9.62158489;marker:none;visibility:visible;display:inline;overflow:visible;enable-background:accumulate"
       sodipodi:type="star" />
    <path
       sodipodi:type="star"
       style="color:#000000;fill:#ffcc00;fill-opacity:1;fill-rule:nonzero;stroke:#ffffff;stroke-width:3.20719504;marker:none;visibility:visible;display:inline;overflow:visible;enable-background:accumulate"
       id="path4099"
       sodipodi:sides="5"
       sodipodi:cx="545.96863"
       sodipodi:cy="939.21094"
       sodipodi:r1="16.779818"
       sodipodi:r2="8.3899088"
       sodipodi:arg1="-2.2974387"
       sodipodi:arg2="-1.6691201"
       inkscape:flatsided="false"
       inkscape:rounded="0.12"
       inkscape:randomized="-0.085"
       d="m 533.53268,925.88072 c 1.03039,-0.80231 11.64461,4.45034 12.98925,4.34109 1.34464,-0.10924 6.01092,-4.86925 7.13073,-4.08919 1.11982,0.78006 -1.75481,9.75512 -1.10447,10.88284 0.65035,1.12772 9.83123,3.4524 9.42228,4.72163 -0.40896,1.26923 -8.89398,2.23438 -9.87055,3.14151 -0.97657,0.90714 -2.7908,10.16004 -4.13314,10.19479 -1.34234,0.0348 -5.08657,-7.46763 -6.21508,-8.10074 -1.1285,-0.63311 -11.45203,1.44757 -11.96525,0.27008 -0.51322,-1.17749 6.29858,-7.63128 6.72167,-8.91077 0.42309,-1.2795 -4.00583,-11.64893 -2.97544,-12.45124 z"
       inkscape:transform-center-x="-0.31741799"
       inkscape:transform-center-y="0.6925057"
       transform="matrix(0.62359789,0,0,0.62359789,-132.45343,-90.866878)" />
    <path
       sodipodi:type="star"
       style="color:#000000;fill:#ffcc00;fill-opacity:1;fill-rule:nonzero;stroke:none;stroke-width:2;marker:none;visibility:visible;display:inline;overflow:visible;enable-background:accumulate"
       id="path4031"
       sodipodi:sides="5"
       sodipodi:cx="545.96863"
       sodipodi:cy="939.21094"
       sodipodi:r1="16.779818"
       sodipodi:r2="8.3899088"
       sodipodi:arg1="-2.2974387"
       sodipodi:arg2="-1.6691201"
       inkscape:flatsided="false"
       inkscape:rounded="0.12"
       inkscape:randomized="-0.085"
       d="m 533.53268,925.88072 c 1.03039,-0.80231 11.64461,4.45034 12.98925,4.34109 1.34464,-0.10924 6.01092,-4.86925 7.13073,-4.08919 1.11982,0.78006 -1.75481,9.75512 -1.10447,10.88284 0.65035,1.12772 9.83123,3.4524 9.42228,4.72163 -0.40896,1.26923 -8.89398,2.23438 -9.87055,3.14151 -0.97657,0.90714 -2.7908,10.16004 -4.13314,10.19479 -1.34234,0.0348 -5.08657,-7.46763 -6.21508,-8.10074 -1.1285,-0.63311 -11.45203,1.44757 -11.96525,0.27008 -0.51322,-1.17749 6.29858,-7.63128 6.72167,-8.91077 0.42309,-1.2795 -4.00583,-11.64893 -2.97544,-12.45124 z"
       inkscape:transform-center-x="-0.31741799"
       inkscape:transform-center-y="0.6925057"
       transform="matrix(0.62359789,0,0,0.62359789,-132.45343,-90.866878)" />
    <path
       transform="matrix(0,0.74852631,-0.74852631,0,881.73689,123.04073)"
       inkscape:transform-center-y="-0.42369278"
       inkscape:transform-center-x="0.71705068"
       d="m 499.94559,938.51989 c -0.0728,-1.16067 7.63573,-6.04924 8.13086,-7.085 0.38983,-0.8155 -1.928,-8.43246 -1.06298,-8.7254 1.09865,-0.37206 8.7502,4.72311 9.8983,4.8504 0.90395,0.10022 6.85662,-2.89492 7.43051,-2.17005 0.7289,0.92065 -1.92128,9.44267 -1.67966,10.58356 0.19023,0.89828 4.94643,6.03623 4.43705,6.79384 -0.64697,0.96224 -9.54842,0.65774 -10.61376,1.15557 -0.83879,0.39196 -3.39344,6.42334 -4.26982,6.1479 -1.1131,-0.34985 -3.70835,-8.54735 -4.51626,-9.38254 -0.6361,-0.65757 -7.69695,-1.25444 -7.75424,-2.16828 z"
       inkscape:randomized="0.04"
       inkscape:rounded="0.11"
       inkscape:flatsided="false"
       sodipodi:arg2="-2.5301754"
       sodipodi:arg1="2.9702135"
       sodipodi:r2="8.0799484"
       sodipodi:r1="14.707737"
       sodipodi:cy="935.86658"
       sodipodi:cx="514.19708"
       sodipodi:sides="5"
       id="path4097"
       style="color:#000000;fill:#ffcc00;fill-opacity:1;fill-rule:nonzero;stroke:#808080;stroke-width:8.01574993;marker:none;visibility:visible;display:inline;overflow:visible;enable-background:accumulate"
       sodipodi:type="star" />
    <path
       sodipodi:type="star"
       style="color:#000000;fill:#ffcc00;fill-opacity:1;fill-rule:nonzero;stroke:#ffffff;stroke-width:2.67191672;marker:none;visibility:visible;display:inline;overflow:visible;enable-background:accumulate"
       id="path4101"
       sodipodi:sides="5"
       sodipodi:cx="514.19708"
       sodipodi:cy="935.86658"
       sodipodi:r1="14.707737"
       sodipodi:r2="8.0799484"
       sodipodi:arg1="2.9702135"
       sodipodi:arg2="-2.5301754"
       inkscape:flatsided="false"
       inkscape:rounded="0.11"
       inkscape:randomized="0.04"
       d="m 499.94559,938.51989 c -0.0728,-1.16067 7.63573,-6.04924 8.13086,-7.085 0.38983,-0.8155 -1.928,-8.43246 -1.06298,-8.7254 1.09865,-0.37206 8.7502,4.72311 9.8983,4.8504 0.90395,0.10022 6.85662,-2.89492 7.43051,-2.17005 0.7289,0.92065 -1.92128,9.44267 -1.67966,10.58356 0.19023,0.89828 4.94643,6.03623 4.43705,6.79384 -0.64697,0.96224 -9.54842,0.65774 -10.61376,1.15557 -0.83879,0.39196 -3.39344,6.42334 -4.26982,6.1479 -1.1131,-0.34985 -3.70835,-8.54735 -4.51626,-9.38254 -0.6361,-0.65757 -7.69695,-1.25444 -7.75424,-2.16828 z"
       inkscape:transform-center-x="0.71705068"
       inkscape:transform-center-y="-0.42369278"
       transform="matrix(0,0.74852631,-0.74852631,0,881.73689,123.04073)" />
    <path
       sodipodi:type="star"
       style="color:#000000;fill:#ffcc00;fill-opacity:1;fill-rule:nonzero;stroke:none;stroke-width:2;marker:none;visibility:visible;display:inline;overflow:visible;enable-background:accumulate"
       id="path4033"
       sodipodi:sides="5"
       sodipodi:cx="514.19708"
       sodipodi:cy="935.86658"
       sodipodi:r1="14.707737"
       sodipodi:r2="8.0799484"
       sodipodi:arg1="2.9702135"
       sodipodi:arg2="-2.5301754"
       inkscape:flatsided="false"
       inkscape:rounded="0.11"
       inkscape:randomized="0.04"
       d="m 499.94559,938.51989 c -0.0728,-1.16067 7.63573,-6.04924 8.13086,-7.085 0.38983,-0.8155 -1.928,-8.43246 -1.06298,-8.7254 1.09865,-0.37206 8.7502,4.72311 9.8983,4.8504 0.90395,0.10022 6.85662,-2.89492 7.43051,-2.17005 0.7289,0.92065 -1.92128,9.44267 -1.67966,10.58356 0.19023,0.89828 4.94643,6.03623 4.43705,6.79384 -0.64697,0.96224 -9.54842,0.65774 -10.61376,1.15557 -0.83879,0.39196 -3.39344,6.42334 -4.26982,6.1479 -1.1131,-0.34985 -3.70835,-8.54735 -4.51626,-9.38254 -0.6361,-0.65757 -7.69695,-1.25444 -7.75424,-2.16828 z"
       inkscape:transform-center-x="0.71705068"
       inkscape:transform-center-y="-0.42369278"
       transform="matrix(0,0.74852631,-0.74852631,0,881.73689,123.04073)" />
    <path
       transform="translate(-332.26421,-431.85371)"
       inkscape:transform-center-y="0.35943849"
       inkscape:transform-center-x="-0.38887217"
       d="m 572.46427,909.98786 c 1.47885,0.66823 -0.29803,4.98754 0.47125,6.40688 0.76929,1.41935 4.96153,1.81257 4.82894,3.40621 -0.13258,1.59363 -4.86669,0.5266 -5.89856,1.70834 -1.03188,1.18173 0.19602,5.66146 -1.38405,5.89994 -1.58008,0.23848 -2.23716,-4.27628 -3.66831,-4.94394 -1.43114,-0.66766 -5.83657,1.7879 -6.62276,0.38926 -0.78619,-1.39864 3.58912,-3.31284 3.86305,-4.89439 0.27393,-1.58155 -3.6617,-5.20026 -2.50348,-6.32968 1.15822,-1.12941 4.29324,2.58384 5.83542,2.30038 1.54218,-0.28346 3.59965,-4.61123 5.0785,-3.943 z"
       inkscape:randomized="-0.04"
       inkscape:rounded="0.25"
       inkscape:flatsided="false"
       sodipodi:arg2="-0.49181647"
       sodipodi:arg1="-1.120135"
       sodipodi:r2="4.7989426"
       sodipodi:r1="9.5978861"
       sodipodi:cy="918.30865"
       sodipodi:cx="568.54309"
       sodipodi:sides="5"
       id="path4090"
       style="color:#000000;fill:#ffcc00;fill-opacity:1;fill-rule:nonzero;stroke:#808080;stroke-width:6;marker:none;visibility:visible;display:inline;overflow:visible;enable-background:accumulate"
       sodipodi:type="star" />
    <path
       sodipodi:type="star"
       style="color:#000000;fill:#ffcc00;fill-opacity:1;fill-rule:nonzero;stroke:#ffffff;stroke-width:2;marker:none;visibility:visible;display:inline;overflow:visible;enable-background:accumulate"
       id="path4092"
       sodipodi:sides="5"
       sodipodi:cx="568.54309"
       sodipodi:cy="918.30865"
       sodipodi:r1="9.5978861"
       sodipodi:r2="4.7989426"
       sodipodi:arg1="-1.120135"
       sodipodi:arg2="-0.49181647"
       inkscape:flatsided="false"
       inkscape:rounded="0.25"
       inkscape:randomized="-0.04"
       d="m 572.46427,909.98786 c 1.47885,0.66823 -0.29803,4.98754 0.47125,6.40688 0.76929,1.41935 4.96153,1.81257 4.82894,3.40621 -0.13258,1.59363 -4.86669,0.5266 -5.89856,1.70834 -1.03188,1.18173 0.19602,5.66146 -1.38405,5.89994 -1.58008,0.23848 -2.23716,-4.27628 -3.66831,-4.94394 -1.43114,-0.66766 -5.83657,1.7879 -6.62276,0.38926 -0.78619,-1.39864 3.58912,-3.31284 3.86305,-4.89439 0.27393,-1.58155 -3.6617,-5.20026 -2.50348,-6.32968 1.15822,-1.12941 4.29324,2.58384 5.83542,2.30038 1.54218,-0.28346 3.59965,-4.61123 5.0785,-3.943 z"
       inkscape:transform-center-x="-0.38887217"
       inkscape:transform-center-y="0.35943849"
       transform="translate(-332.26421,-431.85371)" />
    <path
       sodipodi:type="star"
       style="color:#000000;fill:#ffcc00;fill-opacity:1;fill-rule:nonzero;stroke:none;stroke-width:2;marker:none;visibility:visible;display:inline;overflow:visible;enable-background:accumulate"
       id="path4035"
       sodipodi:sides="5"
       sodipodi:cx="568.54309"
       sodipodi:cy="918.30865"
       sodipodi:r1="9.5978861"
       sodipodi:r2="4.7989426"
       sodipodi:arg1="-1.120135"
       sodipodi:arg2="-0.49181647"
       inkscape:flatsided="false"
       inkscape:rounded="0.25"
       inkscape:randomized="-0.04"
       d="m 572.46427,909.98786 c 1.47885,0.66823 -0.29803,4.98754 0.47125,6.40688 0.76929,1.41935 4.96153,1.81257 4.82894,3.40621 -0.13258,1.59363 -4.86669,0.5266 -5.89856,1.70834 -1.03188,1.18173 0.19602,5.66146 -1.38405,5.89994 -1.58008,0.23848 -2.23716,-4.27628 -3.66831,-4.94394 -1.43114,-0.66766 -5.83657,1.7879 -6.62276,0.38926 -0.78619,-1.39864 3.58912,-3.31284 3.86305,-4.89439 0.27393,-1.58155 -3.6617,-5.20026 -2.50348,-6.32968 1.15822,-1.12941 4.29324,2.58384 5.83542,2.30038 1.54218,-0.28346 3.59965,-4.61123 5.0785,-3.943 z"
       inkscape:transform-center-x="-0.38887217"
       inkscape:transform-center-y="0.35943849"
       transform="translate(-332.26421,-431.85371)" />
    <path
       transform="matrix(-0.96549898,0.26040682,0.26040682,0.96549898,495.98243,-539.4482)"
       inkscape:transform-center-y="0.13364997"
       inkscape:transform-center-x="0.49008507"
       d="m 539.86918,891.62723 c 1.32476,0.28432 1.34977,4.87943 2.2616,5.90928 0.91183,1.02984 4.72091,-0.25109 5.05266,1.10561 0.33174,1.3567 -4.34694,1.47936 -4.88573,2.71853 -0.53878,1.23917 1.45897,5.08468 0.25,5.69729 -1.20898,0.61261 -3.70879,-2.49828 -5.0876,-2.75578 -1.3788,-0.25749 -3.71263,2.92524 -4.55131,1.86902 -0.83869,-1.05621 2.51344,-4.32895 2.274,-5.68938 -0.23944,-1.36044 -4.20474,-2.71895 -3.68951,-3.97178 0.51522,-1.25284 4.03308,-0.0312 5.21112,-0.63071 1.17804,-0.5995 1.84001,-4.53641 3.16477,-4.25208 z"
       inkscape:randomized="-0.074"
       inkscape:rounded="0.25"
       inkscape:flatsided="false"
       sodipodi:arg2="-0.77174258"
       sodipodi:arg1="-1.4000611"
       sodipodi:r2="4.1007395"
       sodipodi:r1="8.201479"
       sodipodi:cy="899.91461"
       sodipodi:cx="538.72247"
       sodipodi:sides="5"
       id="path4085"
       style="color:#000000;fill:#ffcc00;fill-opacity:1;fill-rule:nonzero;stroke:#808080;stroke-width:6;marker:none;visibility:visible;display:inline;overflow:visible;enable-background:accumulate"
       sodipodi:type="star" />
    <path
       sodipodi:type="star"
       style="color:#000000;fill:#ffcc00;fill-opacity:1;fill-rule:nonzero;stroke:#ffffff;stroke-width:2;marker:none;visibility:visible;display:inline;overflow:visible;enable-background:accumulate"
       id="path4087"
       sodipodi:sides="5"
       sodipodi:cx="538.72247"
       sodipodi:cy="899.91461"
       sodipodi:r1="8.201479"
       sodipodi:r2="4.1007395"
       sodipodi:arg1="-1.4000611"
       sodipodi:arg2="-0.77174258"
       inkscape:flatsided="false"
       inkscape:rounded="0.25"
       inkscape:randomized="-0.074"
       d="m 539.86918,891.62723 c 1.32476,0.28432 1.34977,4.87943 2.2616,5.90928 0.91183,1.02984 4.72091,-0.25109 5.05266,1.10561 0.33174,1.3567 -4.34694,1.47936 -4.88573,2.71853 -0.53878,1.23917 1.45897,5.08468 0.25,5.69729 -1.20898,0.61261 -3.70879,-2.49828 -5.0876,-2.75578 -1.3788,-0.25749 -3.71263,2.92524 -4.55131,1.86902 -0.83869,-1.05621 2.51344,-4.32895 2.274,-5.68938 -0.23944,-1.36044 -4.20474,-2.71895 -3.68951,-3.97178 0.51522,-1.25284 4.03308,-0.0312 5.21112,-0.63071 1.17804,-0.5995 1.84001,-4.53641 3.16477,-4.25208 z"
       inkscape:transform-center-x="0.49008507"
       inkscape:transform-center-y="0.13364997"
       transform="matrix(-0.96549898,0.26040682,0.26040682,0.96549898,495.98243,-539.4482)" />
    <path
       sodipodi:type="star"
       style="color:#000000;fill:#ffcc00;fill-opacity:1;fill-rule:nonzero;stroke:none;stroke-width:2;marker:none;visibility:visible;display:inline;overflow:visible;enable-background:accumulate"
       id="path4037"
       sodipodi:sides="5"
       sodipodi:cx="538.72247"
       sodipodi:cy="899.91461"
       sodipodi:r1="8.201479"
       sodipodi:r2="4.1007395"
       sodipodi:arg1="-1.4000611"
       sodipodi:arg2="-0.77174258"
       inkscape:flatsided="false"
       inkscape:rounded="0.25"
       inkscape:randomized="-0.074"
       d="m 539.86918,891.62723 c 1.32476,0.28432 1.34977,4.87943 2.2616,5.90928 0.91183,1.02984 4.72091,-0.25109 5.05266,1.10561 0.33174,1.3567 -4.34694,1.47936 -4.88573,2.71853 -0.53878,1.23917 1.45897,5.08468 0.25,5.69729 -1.20898,0.61261 -3.70879,-2.49828 -5.0876,-2.75578 -1.3788,-0.25749 -3.71263,2.92524 -4.55131,1.86902 -0.83869,-1.05621 2.51344,-4.32895 2.274,-5.68938 -0.23944,-1.36044 -4.20474,-2.71895 -3.68951,-3.97178 0.51522,-1.25284 4.03308,-0.0312 5.21112,-0.63071 1.17804,-0.5995 1.84001,-4.53641 3.16477,-4.25208 z"
       inkscape:transform-center-x="0.49008507"
       inkscape:transform-center-y="0.13364997"
       transform="matrix(-0.96549898,0.26040682,0.26040682,0.96549898,495.98243,-539.4482)" />
    <g
       id="g4080"
       transform="matrix(0.8722843,0.48899909,-0.48899909,0.8722843,223.82713,-595.40404)">
      <path
         sodipodi:type="star"
         style="color:#000000;fill:#ffcc00;fill-opacity:1;fill-rule:nonzero;stroke:#808080;stroke-width:6;marker:none;visibility:visible;display:inline;overflow:visible;enable-background:accumulate"
         id="path4076"
         sodipodi:sides="5"
         sodipodi:cx="517.82019"
         sodipodi:cy="962.34283"
         sodipodi:r1="6.2629499"
         sodipodi:r2="3.1314747"
         sodipodi:arg1="1.0074801"
         sodipodi:arg2="1.6357986"
         inkscape:flatsided="false"
         inkscape:rounded="0.25"
         inkscape:randomized="-0.04"
         d="m 521.03666,967.68235 c -0.86542,0.57409 -2.28954,-1.87863 -3.33197,-1.99011 -1.04243,-0.11149 -3.09589,2.13411 -3.90263,1.49943 -0.80674,-0.63468 1.25668,-3.18284 0.96299,-4.16543 -0.29369,-0.98258 -2.95832,-2.17838 -2.5667,-3.15289 0.39162,-0.97451 3.06882,0.24641 3.92854,-0.36502 0.85972,-0.61142 0.99038,-3.35683 2.03739,-3.2586 1.04701,0.0982 0.86785,3.0642 1.67867,3.73084 0.81082,0.66664 3.62166,-0.30678 3.90584,0.67565 0.28419,0.98244 -2.53647,1.69434 -2.94398,2.66986 -0.40751,0.97552 1.09727,3.78219 0.23185,4.35627 z"
         inkscape:transform-center-x="-0.14381851"
         inkscape:transform-center-y="-0.33460839"
         transform="translate(47.935989,-1.6721857)" />
      <path
         transform="translate(47.935989,-1.6721857)"
         inkscape:transform-center-y="-0.33460839"
         inkscape:transform-center-x="-0.14381851"
         d="m 521.03666,967.68235 c -0.86542,0.57409 -2.28954,-1.87863 -3.33197,-1.99011 -1.04243,-0.11149 -3.09589,2.13411 -3.90263,1.49943 -0.80674,-0.63468 1.25668,-3.18284 0.96299,-4.16543 -0.29369,-0.98258 -2.95832,-2.17838 -2.5667,-3.15289 0.39162,-0.97451 3.06882,0.24641 3.92854,-0.36502 0.85972,-0.61142 0.99038,-3.35683 2.03739,-3.2586 1.04701,0.0982 0.86785,3.0642 1.67867,3.73084 0.81082,0.66664 3.62166,-0.30678 3.90584,0.67565 0.28419,0.98244 -2.53647,1.69434 -2.94398,2.66986 -0.40751,0.97552 1.09727,3.78219 0.23185,4.35627 z"
         inkscape:randomized="-0.04"
         inkscape:rounded="0.25"
         inkscape:flatsided="false"
         sodipodi:arg2="1.6357986"
         sodipodi:arg1="1.0074801"
         sodipodi:r2="3.1314747"
         sodipodi:r1="6.2629499"
         sodipodi:cy="962.34283"
         sodipodi:cx="517.82019"
         sodipodi:sides="5"
         id="path4078"
         style="color:#000000;fill:#ffcc00;fill-opacity:1;fill-rule:nonzero;stroke:#ffffff;stroke-width:2;marker:none;visibility:visible;display:inline;overflow:visible;enable-background:accumulate"
         sodipodi:type="star" />
      <path
         transform="translate(47.935989,-1.6721857)"
         inkscape:transform-center-y="-0.33460839"
         inkscape:transform-center-x="-0.14381851"
         d="m 521.03666,967.68235 c -0.86542,0.57409 -2.28954,-1.87863 -3.33197,-1.99011 -1.04243,-0.11149 -3.09589,2.13411 -3.90263,1.49943 -0.80674,-0.63468 1.25668,-3.18284 0.96299,-4.16543 -0.29369,-0.98258 -2.95832,-2.17838 -2.5667,-3.15289 0.39162,-0.97451 3.06882,0.24641 3.92854,-0.36502 0.85972,-0.61142 0.99038,-3.35683 2.03739,-3.2586 1.04701,0.0982 0.86785,3.0642 1.67867,3.73084 0.81082,0.66664 3.62166,-0.30678 3.90584,0.67565 0.28419,0.98244 -2.53647,1.69434 -2.94398,2.66986 -0.40751,0.97552 1.09727,3.78219 0.23185,4.35627 z"
         inkscape:randomized="-0.04"
         inkscape:rounded="0.25"
         inkscape:flatsided="false"
         sodipodi:arg2="1.6357986"
         sodipodi:arg1="1.0074801"
         sodipodi:r2="3.1314747"
         sodipodi:r1="6.2629499"
         sodipodi:cy="962.34283"
         sodipodi:cx="517.82019"
         sodipodi:sides="5"
         id="path4039"
         style="color:#000000;fill:#ffcc00;fill-opacity:1;fill-rule:nonzero;stroke:none;stroke-width:2;marker:none;visibility:visible;display:inline;overflow:visible;enable-background:accumulate"
         sodipodi:type="star" />
    </g>
  </g>
</svg>
